<svg width="28" height="28" viewBox="0 0 28 28" fill="none" xmlns="http://www.w3.org/2000/svg">
<g id="Icon" clip-path="url(#clip0_66_797)">
<path id="Vector" d="M28 14.0803C27.9982 11.4055 27.2301 8.78718 25.7868 6.53523C24.3434 4.28327 22.2851 2.49193 19.8555 1.3732C17.4259 0.254459 14.7266 -0.144848 12.0771 0.22253C9.42768 0.589908 6.93891 1.70859 4.90535 3.4462C2.87179 5.1838 1.37857 7.4676 0.602394 10.0273C-0.173785 12.587 -0.200433 15.3155 0.525604 17.8899C1.25164 20.4643 2.69997 22.7769 4.6992 24.5538C6.69843 26.3308 9.16488 27.4979 11.8067 27.917V18.1286H8.26V14.0803H11.8067V11.0003C11.8067 7.50031 13.9067 5.55197 17.1033 5.55197C18.6317 5.55197 20.23 5.82031 20.23 5.82031V9.27364H18.4683C16.7183 9.27364 16.1817 10.347 16.1817 11.4553V14.0803H20.0667L19.4483 18.1286H16.1817V27.917C19.4771 27.3971 22.4786 25.7174 24.6454 23.1806C26.8122 20.6438 28.0018 17.4165 28 14.0803Z" fill="#4B4C4C"/>
</g>
<defs>
<clipPath id="clip0_66_797">
<rect width="28" height="28" fill="white"/>
</clipPath>
</defs>
</svg>
