<svg width="40" height="40" viewBox="0 0 40 40" fill="none" xmlns="http://www.w3.org/2000/svg">
<g id="carbon:next-outline">
<path id="Vector" d="M20 10L21.7875 11.7412L14.8125 18.75H30V21.25H14.8125L21.7875 28.2162L20 30L10 20L20 10Z" fill="#262727"/>
<path id="Vector_2" d="M20 37.5C23.4612 37.5 26.8446 36.4737 29.7225 34.5507C32.6003 32.6278 34.8434 29.8947 36.1679 26.697C37.4924 23.4993 37.839 19.9806 37.1637 16.5859C36.4885 13.1913 34.8218 10.0731 32.3744 7.62564C29.9269 5.17822 26.8087 3.51151 23.4141 2.83627C20.0194 2.16102 16.5007 2.50758 13.303 3.83212C10.1053 5.15665 7.3722 7.39967 5.44927 10.2775C3.52635 13.1554 2.49999 16.5388 2.49999 20C2.50529 24.6397 4.35073 29.0878 7.63147 32.3685C10.9122 35.6493 15.3603 37.4947 20 37.5ZM20 5.00001C22.9667 5.00001 25.8668 5.87974 28.3335 7.52796C30.8003 9.17618 32.7229 11.5189 33.8582 14.2598C34.9935 17.0006 35.2905 20.0166 34.7118 22.9264C34.133 25.8361 32.7044 28.5088 30.6066 30.6066C28.5088 32.7044 25.8361 34.133 22.9263 34.7118C20.0166 35.2906 17.0006 34.9935 14.2597 33.8582C11.5189 32.7229 9.17617 30.8003 7.52795 28.3336C5.87973 25.8668 4.99999 22.9667 4.99999 20C5.00462 16.0232 6.58646 12.2106 9.39851 9.39852C12.2105 6.58648 16.0232 5.00464 20 5.00001Z" fill="#262727"/>
</g>
</svg>
