<svg width="45" height="44" viewBox="0 0 45 44" fill="none" xmlns="http://www.w3.org/2000/svg">
<path d="M38.7381 0.6875H6.26194C3.46312 0.6875 1.1875 2.96381 1.1875 5.76194V38.2381C1.1875 41.0362 3.46381 43.3125 6.26194 43.3125H38.7381C41.5362 43.3125 43.8125 41.0362 43.8125 38.2381V5.76194C43.8125 2.96312 41.5362 0.6875 38.7381 0.6875ZM34.6846 19.283C34.4522 19.3059 34.2189 19.3178 33.9847 19.3188C32.722 19.319 31.4792 19.0048 30.3683 18.4046C29.2575 17.8043 28.3136 16.9369 27.6219 15.8806V27.5887C27.622 29.3004 27.1145 30.9737 26.1637 32.397C25.2128 33.8203 23.8612 34.9296 22.2798 35.5847C20.6984 36.2398 18.9583 36.4113 17.2794 36.0774C15.6006 35.7435 14.0585 34.9192 12.8481 33.7089C11.6378 32.4985 10.8135 30.9564 10.4796 29.2776C10.1457 27.5987 10.3172 25.8586 10.9723 24.2772C11.6274 22.6958 12.7367 21.3442 14.16 20.3933C15.5833 19.4425 17.2566 18.935 18.9683 18.9351C19.1491 18.9351 19.3258 18.9509 19.5032 18.9626V23.2272C19.3258 23.2059 19.1512 23.1736 18.9683 23.1736C18.3883 23.1736 17.814 23.2878 17.2782 23.5098C16.7424 23.7317 16.2555 24.057 15.8454 24.4671C15.4353 24.8772 15.1099 25.3641 14.888 25.8999C14.666 26.4358 14.5518 27.0101 14.5518 27.5901C14.5518 28.17 14.666 28.7444 14.888 29.2802C15.1099 29.816 15.4353 30.3029 15.8454 30.713C16.2555 31.1231 16.7424 31.4484 17.2782 31.6704C17.814 31.8923 18.3883 32.0066 18.9683 32.0066C21.4083 32.0066 23.5629 30.0843 23.5629 27.6451L23.6055 7.75913H27.6851C27.8716 9.53173 28.6752 11.1824 29.9554 12.4225C31.2357 13.6627 32.911 14.4134 34.6887 14.5434V19.283" fill="black"/>
</svg>
