<svg width="28" height="28" viewBox="0 0 28 28" fill="none" xmlns="http://www.w3.org/2000/svg">
<g id="Icon" clip-path="url(#clip0_66_795)">
<path id="Vector" fillRule="evenodd" clipRule="evenodd" d="M23.8583 23.8583H19.7167V17.36C19.7167 15.8083 19.6933 13.8133 17.5583 13.8133C15.4 13.8133 15.0733 15.505 15.0733 17.255V23.8583H10.9083V10.5H14.8867V12.32H14.945C15.3436 11.6381 15.9199 11.0771 16.6123 10.697C17.3047 10.3169 18.0873 10.1319 18.8767 10.1617C23.0767 10.1617 23.8583 12.9267 23.8583 16.5317V23.8583ZM6.23 8.66833C5.91362 8.66833 5.60035 8.60602 5.30805 8.48495C5.01576 8.36387 4.75017 8.18642 4.52646 7.9627C4.30275 7.73899 4.12529 7.47341 4.00422 7.18111C3.88315 6.88882 3.82083 6.57554 3.82083 6.25917C3.82083 5.94279 3.88315 5.62951 4.00422 5.33722C4.12529 5.04492 4.30275 4.77934 4.52646 4.55563C4.75017 4.33192 5.01576 4.15446 5.30805 4.03339C5.60035 3.91231 5.91362 3.85 6.23 3.85C6.86895 3.85 7.48173 4.10382 7.93354 4.55563C8.38534 5.00743 8.63917 5.62022 8.63917 6.25917C8.63917 6.89812 8.38534 7.5109 7.93354 7.9627C7.48173 8.41451 6.86895 8.66833 6.23 8.66833ZM4.14167 23.8583H8.30667V10.5H4.14167V23.8583ZM25.9233 0H2.065C0.921667 0 0 0.898333 0 2.01833V25.9817C0 27.09 0.933333 28 2.065 28H25.9233C27.0667 28 28 27.09 28 25.9817V2.01833C28 0.898333 27.0667 0 25.9233 0Z" fill="#4B4C4C"/>
</g>
<defs>
<clipPath id="clip0_66_795">
<rect width="28" height="28" fill="white"/>
</clipPath>
</defs>
</svg>
