<svg width="20" height="20" viewBox="0 0 20 20" fill="none" xmlns="http://www.w3.org/2000/svg">
<g id="vuesax/outline/notification">
<g id="vuesax/outline/notification_2">
<g id="notification">
<path id="Vector" d="M10.0182 17.1086C8.07652 17.1086 6.13485 16.8003 4.29319 16.1836C3.59319 15.9419 3.05985 15.4503 2.82652 14.8086C2.58485 14.1669 2.66819 13.4586 3.05152 12.8253L4.00985 11.2336C4.20985 10.9003 4.39319 10.2336 4.39319 9.84193V7.43359C4.39319 4.33359 6.91819 1.80859 10.0182 1.80859C13.1182 1.80859 15.6432 4.33359 15.6432 7.43359V9.84193C15.6432 10.2253 15.8265 10.9003 16.0265 11.2419L16.9765 12.8253C17.3349 13.4253 17.4015 14.1503 17.1599 14.8086C16.9182 15.4669 16.3932 15.9669 15.7349 16.1836C13.9015 16.8003 11.9599 17.1086 10.0182 17.1086ZM10.0182 3.05859C7.60985 3.05859 5.64319 5.01693 5.64319 7.43359V9.84193C5.64319 10.4503 5.39319 11.3503 5.08485 11.8753L4.12652 13.4669C3.94318 13.7753 3.89319 14.1003 4.00152 14.3753C4.10152 14.6586 4.35152 14.8753 4.69319 14.9919C8.17652 16.1586 11.8682 16.1586 15.3515 14.9919C15.6515 14.8919 15.8849 14.6669 15.9932 14.3669C16.1015 14.0669 16.0765 13.7419 15.9099 13.4669L14.9515 11.8753C14.6349 11.3336 14.3932 10.4419 14.3932 9.83359V7.43359C14.3932 5.01693 12.4349 3.05859 10.0182 3.05859Z" fill="#262727"/>
<path id="Vector_2" d="M11.5688 3.2834C11.5105 3.2834 11.4521 3.27507 11.3938 3.2584C11.1521 3.19173 10.9188 3.14173 10.6938 3.1084C9.98546 3.01673 9.30213 3.06673 8.66046 3.2584C8.42713 3.3334 8.17713 3.2584 8.0188 3.0834C7.86046 2.9084 7.81046 2.6584 7.90213 2.4334C8.2438 1.5584 9.07713 0.983398 10.0271 0.983398C10.9771 0.983398 11.8105 1.55007 12.1521 2.4334C12.2355 2.6584 12.1938 2.9084 12.0355 3.0834C11.9105 3.21673 11.7355 3.2834 11.5688 3.2834Z" fill="#262727"/>
<path id="Vector_3" d="M10.0186 19.0088C9.19355 19.0088 8.39355 18.6755 7.81022 18.0921C7.22689 17.5088 6.89355 16.7088 6.89355 15.8838H8.14355C8.14355 16.3755 8.34355 16.8588 8.69355 17.2088C9.04355 17.5588 9.52689 17.7588 10.0186 17.7588C11.0519 17.7588 11.8936 16.9171 11.8936 15.8838H13.1436C13.1436 17.6088 11.7436 19.0088 10.0186 19.0088Z" fill="#262727"/>
</g>
</g>
</g>
</svg>
