<svg width="45" height="44" viewBox="0 0 45 44" fill="none" xmlns="http://www.w3.org/2000/svg">
<g clip-path="url(#clip0_591_9815)">
<path d="M34.1875 0H10.8125C5.11706 0 0.5 4.61706 0.5 10.3125V33.6875C0.5 39.3829 5.11706 44 10.8125 44H34.1875C39.8829 44 44.5 39.3829 44.5 33.6875V10.3125C44.5 4.61706 39.8829 0 34.1875 0Z" fill="white"/>
<path d="M34.1875 0H10.8125C5.11706 0 0.5 4.61706 0.5 10.3125V33.6875C0.5 39.3829 5.11706 44 10.8125 44H34.1875C39.8829 44 44.5 39.3829 44.5 33.6875V10.3125C44.5 4.61706 39.8829 0 34.1875 0Z" fill="#1D9BF0"/>
<path d="M34.8014 15.7113C34.8203 15.984 34.8203 16.2568 34.8203 16.5321C34.8203 24.9191 28.4355 34.5919 16.7606 34.5919V34.5867C13.3116 34.5917 9.93405 33.6039 7.03125 31.7414C7.53301 31.8015 8.0366 31.832 8.54203 31.833C11.4007 31.8353 14.1771 30.8765 16.4251 29.1106C15.1006 29.0855 13.8171 28.6472 12.7539 27.8569C11.6907 27.0666 10.901 25.9639 10.4952 24.7029C11.4462 24.8863 12.4265 24.8489 13.3607 24.5936C10.3997 23.9953 8.26927 21.3936 8.26927 18.3721V18.2916C9.15199 18.7833 10.1399 19.0558 11.1499 19.086C8.36105 17.222 7.50133 13.5118 9.18536 10.6109C10.7788 12.5719 12.7669 14.1758 15.0207 15.3182C17.2744 16.4607 19.7433 17.1162 22.2669 17.2421C22.0153 16.1591 22.0525 15.0289 22.3747 13.9647C22.6969 12.9005 23.2929 11.9395 24.1031 11.1779C26.6595 8.77473 30.6802 8.89796 33.0834 11.4531C34.5048 11.1724 35.8679 10.6513 37.114 9.9122C36.6402 11.3818 35.6486 12.6293 34.3238 13.4226C35.582 13.2742 36.8107 12.9374 37.9688 12.4235C37.117 13.6992 36.0444 14.8124 34.8014 15.7113Z" fill="white"/>
</g>
<defs>
<clipPath id="clip0_591_9815">
<rect width="44" height="44" fill="white" transform="translate(0.5)"/>
</clipPath>
</defs>
</svg>
