<svg width="45" height="44" viewBox="0 0 45 44" fill="none" xmlns="http://www.w3.org/2000/svg">
<g clip-path="url(#clip0_591_9808)">
<path d="M34.1875 0H10.8125C5.11706 0 0.5 4.61706 0.5 10.3125V33.6875C0.5 39.3829 5.11706 44 10.8125 44H34.1875C39.8829 44 44.5 39.3829 44.5 33.6875V10.3125C44.5 4.61706 39.8829 0 34.1875 0Z" fill="url(#paint0_radial_591_9808)"/>
<path d="M34.1875 0H10.8125C5.11706 0 0.5 4.61706 0.5 10.3125V33.6875C0.5 39.3829 5.11706 44 10.8125 44H34.1875C39.8829 44 44.5 39.3829 44.5 33.6875V10.3125C44.5 4.61706 39.8829 0 34.1875 0Z" fill="url(#paint1_radial_591_9808)"/>
<path d="M22.5015 4.8125C17.8338 4.8125 17.2478 4.83295 15.4146 4.91631C13.5848 5.00019 12.3358 5.2898 11.243 5.71484C10.1125 6.15381 9.15356 6.74111 8.19828 7.69673C7.24214 8.65219 6.65484 9.61108 6.2145 10.7412C5.78825 11.8343 5.4983 13.0838 5.41597 14.9127C5.33398 16.7461 5.3125 17.3322 5.3125 22.0002C5.3125 26.6681 5.33313 27.2522 5.41631 29.0854C5.50053 30.9152 5.79014 32.1642 6.21484 33.257C6.65416 34.3875 7.24145 35.3464 8.19708 36.3017C9.15219 37.2579 10.1111 37.8465 11.2408 38.2855C12.3345 38.7105 13.5836 39.0002 15.4131 39.084C17.2465 39.1674 17.8319 39.1878 22.4995 39.1878C27.1678 39.1878 27.7518 39.1674 29.585 39.084C31.4148 39.0002 32.6652 38.7105 33.7588 38.2855C34.8889 37.8465 35.8464 37.2579 36.8014 36.3017C37.7575 35.3464 38.3446 34.3875 38.7852 33.2575C39.2076 32.1642 39.4977 30.9148 39.5837 29.0857C39.666 27.2525 39.6875 26.6681 39.6875 22.0002C39.6875 17.3322 39.666 16.7465 39.5837 14.9131C39.4977 13.0833 39.2076 11.8345 38.7852 10.7417C38.3446 9.61108 37.7575 8.65219 36.8014 7.69673C35.8454 6.74077 34.8893 6.15347 33.7578 5.71502C32.6621 5.2898 31.4124 5.00002 29.5826 4.91631C27.7492 4.83295 27.1655 4.8125 22.4962 4.8125H22.5015ZM20.9597 7.90986C21.4174 7.90917 21.928 7.90986 22.5015 7.90986C27.0908 7.90986 27.6346 7.92636 29.4468 8.00869C31.1226 8.08534 32.0322 8.36533 32.638 8.60063C33.4402 8.91206 34.012 9.28452 34.6132 9.88625C35.2148 10.4878 35.5871 11.0607 35.8994 11.8628C36.1347 12.4678 36.415 13.3774 36.4913 15.0532C36.5736 16.8651 36.5915 17.4092 36.5915 21.9962C36.5915 26.5832 36.5736 27.1275 36.4913 28.9393C36.4147 30.6151 36.1347 31.5246 35.8994 32.1298C35.5879 32.9319 35.2148 33.5031 34.6132 34.1043C34.0117 34.7059 33.4405 35.0781 32.638 35.3898C32.0329 35.6261 31.1226 35.9054 29.4468 35.982C27.6349 36.0644 27.0908 36.0822 22.5015 36.0822C17.9121 36.0822 17.3682 36.0644 15.5564 35.982C13.8806 35.9047 12.9711 35.6247 12.3647 35.3894C11.5627 35.0778 10.9897 34.7055 10.3881 34.104C9.78658 33.5024 9.4143 32.9309 9.102 32.1284C8.8667 31.5233 8.58637 30.6137 8.51006 28.9379C8.42773 27.126 8.41123 26.5818 8.41123 21.9919C8.41123 17.402 8.42773 16.8608 8.51006 15.0489C8.58672 13.3731 8.8667 12.4635 9.102 11.8577C9.41361 11.0555 9.78658 10.4827 10.3883 9.88109C10.99 9.27953 11.5627 8.90708 12.3649 8.59495C12.9707 8.35862 13.8806 8.07933 15.5564 8.00233C17.142 7.93066 17.7564 7.90917 20.9597 7.90556V7.90986ZM31.6762 10.7637C30.5376 10.7637 29.6137 11.6866 29.6137 12.8255C29.6137 13.9642 30.5376 14.888 31.6762 14.888C32.8149 14.888 33.7387 13.9642 33.7387 12.8255C33.7387 11.6868 32.8149 10.763 31.6762 10.763V10.7637ZM22.5015 13.1735C17.6272 13.1735 13.6751 17.1256 13.6751 22.0002C13.6751 26.8747 17.6272 30.8249 22.5015 30.8249C27.3761 30.8249 31.3268 26.8747 31.3268 22.0002C31.3268 17.1258 27.3758 13.1735 22.5012 13.1735H22.5015ZM22.5015 16.2709C25.6656 16.2709 28.2308 18.8358 28.2308 22.0002C28.2308 25.1642 25.6656 27.7295 22.5015 27.7295C19.3375 27.7295 16.7724 25.1642 16.7724 22.0002C16.7724 18.8358 19.3373 16.2709 22.5015 16.2709Z" fill="white"/>
</g>
<defs>
<radialGradient id="paint0_radial_591_9808" cx="0" cy="0" r="1" gradientUnits="userSpaceOnUse" gradientTransform="translate(12.1875 47.3889) rotate(-90) scale(43.6073 40.5582)">
<stop stop-color="#FFDD55"/>
<stop offset="0.1" stop-color="#FFDD55"/>
<stop offset="0.5" stop-color="#FF543E"/>
<stop offset="1" stop-color="#C837AB"/>
</radialGradient>
<radialGradient id="paint1_radial_591_9808" cx="0" cy="0" r="1" gradientUnits="userSpaceOnUse" gradientTransform="translate(-6.87017 3.16955) rotate(78.681) scale(19.4927 80.3495)">
<stop stop-color="#3771C8"/>
<stop offset="0.128" stop-color="#3771C8"/>
<stop offset="1" stop-color="#6600FF" stop-opacity="0"/>
</radialGradient>
<clipPath id="clip0_591_9808">
<rect width="44" height="44" fill="white" transform="translate(0.5)"/>
</clipPath>
</defs>
</svg>
