<svg width="49" height="48" viewBox="0 0 49 48" fill="none" xmlns="http://www.w3.org/2000/svg">
<g filter="url(#filter0_d_591_9805)">
<rect x="2.5" y="1" width="44" height="44" rx="8" fill="#1877F2"/>
<g clip-path="url(#clip0_591_9805)">
<path d="M36.5 23C36.5 16.3726 31.1274 11 24.5 11C17.8726 11 12.5 16.3726 12.5 23C12.5 28.9895 16.8882 33.954 22.625 34.8542V26.4688H19.5781V23H22.625V20.3563C22.625 17.3488 24.4166 15.6875 27.1576 15.6875C28.4701 15.6875 29.8438 15.9219 29.8438 15.9219V18.875H28.3306C26.84 18.875 26.375 19.8001 26.375 20.75V23H29.7031L29.1711 26.4688H26.375V34.8542C32.1118 33.954 36.5 28.9895 36.5 23Z" fill="white"/>
</g>
</g>
<defs>
<filter id="filter0_d_591_9805" x="0.5" y="0" width="48" height="48" filterUnits="userSpaceOnUse" colorInterpolationFilters="sRGB">
<feFlood floodOpacity="0" result="BackgroundImageFix"/>
<feColorMatrix in="SourceAlpha" type="matrix" values="0 0 0 0 0 0 0 0 0 0 0 0 0 0 0 0 0 0 127 0" result="hardAlpha"/>
<feOffset dy="1"/>
<feGaussianBlur stdDeviation="1"/>
<feColorMatrix type="matrix" values="0 0 0 0 0.0627451 0 0 0 0 0.0941176 0 0 0 0 0.156863 0 0 0 0.05 0"/>
<feBlend mode="normal" in2="BackgroundImageFix" result="effect1_dropShadow_591_9805"/>
<feBlend mode="normal" in="SourceGraphic" in2="effect1_dropShadow_591_9805" result="shape"/>
</filter>
<clipPath id="clip0_591_9805">
<rect width="24" height="24" fill="white" transform="translate(12.5 11)"/>
</clipPath>
</defs>
</svg>
