<svg width="28" height="28" viewBox="0 0 28 28" fill="none" xmlns="http://www.w3.org/2000/svg">
<g id="Icon" clip-path="url(#clip0_66_793)">
<path id="Vector" fillRule="evenodd" clipRule="evenodd" d="M24.6983 5.94925C25.9029 5.227 26.8029 4.09054 27.23 2.75259C26.1217 3.41759 24.8967 3.89592 23.5783 4.15259C22.7935 3.30111 21.769 2.7075 20.64 2.45003C19.5109 2.19255 18.3304 2.28331 17.254 2.71034C16.1776 3.13736 15.2559 3.8806 14.6104 4.84204C13.9649 5.80348 13.626 6.93797 13.6383 8.09592C13.6383 8.53926 13.6967 8.98259 13.79 9.40259C9.00667 9.16926 4.78333 6.88259 1.94833 3.38259C1.20557 4.65108 0.976669 6.15581 1.30863 7.58778C1.64059 9.01976 2.50821 10.2703 3.73333 11.0826C2.82072 11.0532 1.92851 10.8051 1.13167 10.3593V10.4293C1.13167 13.2293 3.115 15.5509 5.74 16.0759C4.89597 16.308 4.01005 16.3439 3.15 16.1809C3.51503 17.3246 4.22877 18.3253 5.19117 19.043C6.15357 19.7606 7.3164 20.1591 8.51667 20.1826C7.32427 21.1215 5.95785 21.8152 4.49617 22.2237C3.03448 22.6321 1.50641 22.7473 0 22.5626C2.62559 24.2558 5.68413 25.1551 8.80833 25.1526C19.3667 25.1526 25.1417 16.3793 25.1417 8.76092V8.01426C26.2636 7.20026 27.2315 6.19285 28 5.03926C26.9733 5.49426 25.865 5.79759 24.6983 5.93759V5.94925Z" fill="#4B4C4C"/>
</g>
<defs>
<clipPath id="clip0_66_793">
<rect width="28" height="28" fill="white"/>
</clipPath>
</defs>
</svg>
