<svg width="50" height="50" viewBox="0 0 50 50" fill="none" xmlns="http://www.w3.org/2000/svg">
<g id="Frame">
<g id="Group">
<path id="Vector" d="M25 46.8734C24.7687 46.8735 24.5403 46.8223 24.3312 46.7234C13.3484 41.5312 6.25 30.3265 6.25 18.175V9.37342C6.24993 9.03057 6.36263 8.69721 6.57073 8.42473C6.77883 8.15225 7.07078 7.95578 7.40156 7.86561L24.5891 3.17811C24.8581 3.10469 25.1419 3.10469 25.4109 3.17811L42.5984 7.86561C42.9292 7.95578 43.2212 8.15225 43.4293 8.42473C43.6374 8.69721 43.7501 9.03057 43.75 9.37342V18.175C43.75 30.325 36.6516 41.5312 25.6687 46.7234C25.4597 46.8223 25.2313 46.8735 25 46.8734ZM9.375 10.5672V18.175C9.375 28.875 15.4844 38.7625 25 43.5719C34.5156 38.7625 40.625 28.875 40.625 18.175V10.5656L25 6.3078L9.375 10.5672Z" fill="#262727"/>
<path id="Vector_2" d="M21.8756 31.2497C21.6704 31.2499 21.4672 31.2095 21.2776 31.131C21.088 31.0524 20.9159 30.9372 20.771 30.7919L14.521 24.5419C14.3717 24.3977 14.2527 24.2253 14.1708 24.0347C14.0889 23.844 14.0458 23.639 14.044 23.4315C14.0422 23.2241 14.0817 23.0183 14.1603 22.8263C14.2389 22.6343 14.3549 22.4598 14.5016 22.3131C14.6483 22.1664 14.8228 22.0504 15.0148 21.9718C15.2068 21.8933 15.4126 21.8537 15.62 21.8555C15.8275 21.8573 16.0325 21.9004 16.2232 21.9823C16.4138 22.0642 16.5862 22.1832 16.7303 22.3325L21.8756 27.4778L33.271 16.0825C33.4151 15.9332 33.5875 15.8142 33.7781 15.7323C33.9688 15.6504 34.1738 15.6073 34.3813 15.6055C34.5887 15.6037 34.7945 15.6433 34.9865 15.7218C35.1785 15.8004 35.353 15.9164 35.4997 16.0631C35.6464 16.2098 35.7624 16.3843 35.841 16.5763C35.9196 16.7683 35.9591 16.9741 35.9573 17.1815C35.9555 17.389 35.9124 17.594 35.8305 17.7847C35.7486 17.9753 35.6296 18.1477 35.4803 18.2919L22.9803 30.7919C22.8354 30.9372 22.6632 31.0524 22.4737 31.131C22.2841 31.2095 22.0809 31.2499 21.8756 31.2497Z" fill="#262727"/>
</g>
</g>
</svg>
