<svg width="50" height="50" viewBox="0 0 50 50" fill="none" xmlns="http://www.w3.org/2000/svg">
<g id="Frame" clip-path="url(#clip0_367_2522)">
<g id="Group">
<path id="Vector" d="M23.0265 33.9127C23.2095 33.7294 23.3124 33.4809 23.3124 33.2218C23.3124 32.9628 23.2095 32.7143 23.0265 32.531C22.6451 32.1503 22.0271 32.1503 21.6452 32.531C21.2645 32.9128 21.2645 33.5308 21.6452 33.9127C22.027 34.2934 22.6451 34.2934 23.0265 33.9127ZM18.4032 10.7392C18.4032 16.6606 23.2207 21.4786 29.1422 21.4786C35.0638 21.4786 39.8814 16.6606 39.8814 10.7392C39.8814 4.81768 35.0638 0 29.1422 0C23.2207 0 18.4032 4.81758 18.4032 10.7392ZM37.9291 10.7392C37.9291 15.5842 33.9873 19.5259 29.1422 19.5259C24.2972 19.5259 20.3554 15.5842 20.3554 10.7392C20.3554 5.89443 24.2972 1.95273 29.1422 1.95273C33.9873 1.95273 37.9291 5.89443 37.9291 10.7392Z" fill="black"/>
<path id="Vector_2" d="M11.294 49.7104C11.6724 50.0919 12.2886 50.0962 12.672 49.7185L17.4052 45.0554C18.2094 44.2513 18.4539 43.0606 18.1003 42.0258L19.1183 41.0438C19.6631 40.5156 20.3925 40.221 21.1513 40.2226H34.13C36.4325 40.2226 38.6088 39.3383 40.2587 37.7327C40.3265 37.6667 39.7433 38.3537 49.113 27.1553C50.5026 25.5111 50.2948 23.0423 48.6491 21.6511C47.0138 20.2729 44.564 20.4708 43.1704 22.0866L37.4095 28.0079C36.682 27.1126 35.5727 26.5545 34.3741 26.5545H23.4874C21.9382 25.9063 20.2944 25.5783 18.5984 25.5783C13.8973 25.5783 9.79218 27.7496 7.58925 31.8207C6.66112 31.6448 5.68222 31.9256 4.97811 32.6298L0.33368 37.2879C-0.0455194 37.6682 -0.046203 38.2835 0.332117 38.665L11.294 49.7104ZM18.598 27.5307C20.0934 27.5307 21.5392 27.8316 22.8961 28.4252C23.0195 28.4793 23.1528 28.5072 23.2875 28.5072H34.3741C35.4327 28.5072 36.3268 29.3705 36.3268 30.4596C36.3268 31.5364 35.4511 32.4123 34.3741 32.4123H26.4087C25.8696 32.4123 25.4325 32.8495 25.4325 33.3885C25.4325 33.9279 25.8696 34.3646 26.4087 34.3646H34.3741C36.5275 34.3646 38.2792 32.613 38.2792 30.4596C38.2792 30.2879 38.267 30.1178 38.2449 29.9491C43.8178 24.2206 44.6036 23.4157 44.6372 23.3757C45.333 22.5544 46.5682 22.4502 47.3898 23.143C48.2123 23.8384 48.3165 25.0729 47.6187 25.8987L38.8622 36.367C37.5835 37.5945 35.9047 38.2702 34.1301 38.2702H21.1513C19.8794 38.2702 18.6755 38.7565 17.7623 39.6389L16.9326 40.4396L9.28417 32.7915C11.0717 29.438 14.426 27.5307 18.598 27.5307ZM6.35975 34.0096C6.68173 33.6876 7.17616 33.6296 7.56864 33.8722C7.73759 33.9752 7.25243 33.5335 16.0247 42.2936C16.4149 42.6838 16.3939 43.3056 16.03 43.6695L11.9948 47.6448L2.40204 37.9788L6.35975 34.0096ZM27.9708 4.88086V6.0249C26.8344 6.42773 26.0181 7.51299 26.0181 8.78604C26.0181 10.4008 27.3318 11.7149 28.947 11.7149C29.4852 11.7149 29.9231 12.1528 29.9231 12.6911C29.9231 13.2294 29.4852 13.6673 28.947 13.6673C28.53 13.6673 28.0795 13.4052 27.6794 12.9287C27.3322 12.516 26.7165 12.4629 26.3038 12.8098C25.891 13.1568 25.8376 13.7727 26.1847 14.1854C26.7066 14.806 27.3204 15.2386 27.9708 15.4568V16.5962C27.9708 17.1356 28.4079 17.5724 28.947 17.5724C29.486 17.5724 29.9231 17.1356 29.9231 16.5962V15.4521C31.0596 15.0489 31.8759 13.9637 31.8759 12.6911C31.8759 11.0759 30.5621 9.76221 28.947 9.76221C28.4087 9.76221 27.9708 9.32422 27.9708 8.78604C27.9708 8.24775 28.4087 7.80947 28.947 7.80947C29.293 7.80947 29.658 7.98604 30.0028 8.31982C30.3905 8.69482 31.0084 8.68447 31.3834 8.29736C31.7584 7.90967 31.7481 7.2918 31.3609 6.9168C30.8653 6.4373 30.3694 6.16602 29.9231 6.01807V4.88086C29.9231 4.3415 29.4859 3.9043 28.947 3.9043C28.408 3.9043 27.9708 4.3415 27.9708 4.88086Z" fill="black"/>
</g>
</g>
<defs>
<clipPath id="clip0_367_2522">
<rect width="49.9023" height="50" fill="white"/>
</clipPath>
</defs>
</svg>
