<svg width="40" height="40" viewBox="0 0 40 40" fill="none" xmlns="http://www.w3.org/2000/svg">
<g id="Frame" clip-path="url(#clip0_385_3371)">
<g id="Group">
<path id="Vector" d="M17.7562 28.6945L14.7851 27.8991C14.7647 27.8928 14.7474 27.8789 14.7368 27.8603C14.7263 27.8417 14.7232 27.8197 14.7282 27.7989L15.5809 24.6209C15.7059 24.1496 15.6392 23.648 15.3953 23.2258C15.1515 22.8035 14.7504 22.495 14.2798 22.3677L13.2989 22.1042C13.087 22.0475 12.8613 22.0771 12.6712 22.1867C12.4812 22.2962 12.3423 22.4766 12.2852 22.6884L11.7227 24.7941C11.3272 26.2706 10.3214 26.7227 8.0858 26.367L8.12862 26.2073C8.20623 25.9168 8.16554 25.6073 8.01546 25.3466C7.86537 25.086 7.61811 24.8954 7.32783 24.8167L4.21088 23.982C3.9203 23.9043 3.61081 23.945 3.35017 24.0951C3.08953 24.2452 2.89898 24.4925 2.82026 24.7827L0.0393967 35.1671C-0.0384061 35.4575 0.00219765 35.7668 0.152293 36.0273C0.302388 36.2877 0.549706 36.478 0.839944 36.5563L3.95713 37.3909C4.10137 37.4302 4.25198 37.4403 4.40018 37.4207C4.54837 37.4011 4.69117 37.3522 4.82026 37.2768C4.94896 37.2029 5.06167 37.1042 5.15183 36.9863C5.24199 36.8684 5.3078 36.7338 5.34541 36.5902L5.47041 36.125C6.20479 36.4288 6.81893 36.7734 7.23463 37.118C7.96293 37.7338 8.82105 38.1769 9.74479 38.4142L13.685 39.4707C13.996 39.5534 14.3232 39.5534 14.6341 39.4705C14.945 39.3876 15.2288 39.2248 15.4573 38.9982C15.6858 38.7717 15.851 38.4893 15.9365 38.1791C16.0221 37.8689 16.0249 37.5417 15.9449 37.2301C16.2064 37.1895 16.4561 37.0931 16.677 36.9473C16.8979 36.8015 17.0848 36.6099 17.2249 36.3854C17.365 36.1609 17.4551 35.9088 17.489 35.6463C17.523 35.3838 17.4999 35.1171 17.4214 34.8644C17.6981 34.7952 17.9548 34.6626 18.1715 34.4772C18.3881 34.2918 18.5587 34.0585 18.6698 33.7959C18.7809 33.5333 18.8294 33.2484 18.8116 32.9638C18.7937 32.6792 18.71 32.4026 18.567 32.1559C18.5209 32.076 18.469 31.9996 18.4117 31.9273C18.6826 31.7169 18.8894 31.4351 19.0086 31.1136C19.1279 30.7921 19.155 30.4436 19.0869 30.1075C19.0187 29.7714 18.858 29.461 18.6229 29.2113C18.3878 28.9617 18.0876 28.7826 17.7562 28.6945ZM4.27182 36.3307C4.2673 36.3335 4.26224 36.3353 4.25697 36.336C4.2517 36.3366 4.24635 36.3362 4.24127 36.3346L1.12494 35.5C1.11507 35.4969 1.10667 35.4903 1.10132 35.4814C1.09597 35.4726 1.09403 35.4621 1.09588 35.4519L3.87713 25.0675C3.88002 25.0588 3.8855 25.0513 3.89284 25.0458C3.90018 25.0404 3.90902 25.0373 3.91815 25.0371C3.92103 25.0371 3.92389 25.0375 3.92666 25.0383H3.92744L7.04369 25.8727C7.05387 25.876 7.06246 25.883 7.06782 25.8922C7.07318 25.9015 7.07494 25.9124 7.07276 25.9229L4.28838 36.3096C4.28723 36.3141 4.28513 36.3183 4.28222 36.3219C4.27931 36.3255 4.27565 36.3284 4.27151 36.3305L4.27182 36.3307ZM18.0038 30.668C17.952 30.8598 17.8264 31.0234 17.6544 31.1229C17.4824 31.2225 17.278 31.2499 17.0858 31.1992L14.4281 30.4859C14.2879 30.4483 14.1386 30.4679 14.013 30.5404C13.8873 30.6129 13.7956 30.7323 13.758 30.8724C13.7204 31.0125 13.74 31.1619 13.8125 31.2875C13.885 31.4132 14.0044 31.5049 14.1446 31.5425L17.1659 32.3532C17.3572 32.4058 17.5201 32.5317 17.6192 32.7036C17.7183 32.8755 17.7457 33.0796 17.6953 33.2715C17.6436 33.4632 17.518 33.6267 17.346 33.726C17.1741 33.8252 16.9697 33.8523 16.7778 33.8011L16.191 33.6434C16.1733 33.6381 16.1555 33.6331 16.1377 33.6283L13.7283 32.9816C13.6589 32.963 13.5866 32.9582 13.5153 32.9676C13.4441 32.9769 13.3754 33.0002 13.3132 33.036C13.1875 33.1085 13.0958 33.2279 13.0581 33.368C13.0205 33.5082 13.0401 33.6575 13.1126 33.7832C13.185 33.9088 13.3044 34.0006 13.4446 34.0382L15.8878 34.6945C16.0709 34.754 16.2243 34.8812 16.3166 35.0501C16.4089 35.2191 16.4331 35.4169 16.3842 35.6031C16.3326 35.7949 16.207 35.9583 16.0349 36.0576C15.8629 36.1569 15.6586 36.1839 15.4667 36.1327L14.7035 35.9279C14.6818 35.9212 14.66 35.9148 14.6381 35.9089L13.061 35.487L13.0568 35.486C12.9874 35.4674 12.915 35.4626 12.8438 35.472C12.7726 35.4814 12.7039 35.5047 12.6416 35.5406C12.5794 35.5765 12.5249 35.6243 12.4811 35.6813C12.4374 35.7383 12.4053 35.8033 12.3867 35.8727C12.3681 35.9421 12.3633 36.0145 12.3727 36.0857C12.382 36.157 12.4053 36.2257 12.4412 36.2879C12.4771 36.3501 12.525 36.4047 12.5819 36.4484C12.6389 36.4922 12.704 36.5243 12.7734 36.5429L14.396 36.9784C14.5804 37.0401 14.7336 37.1712 14.8232 37.3439C14.9128 37.5165 14.9317 37.7173 14.876 37.9036C14.8204 38.09 14.6944 38.2474 14.5248 38.3427C14.3552 38.4379 14.1552 38.4634 13.9671 38.4139L10.0274 37.3575C9.25626 37.1595 8.53984 36.7897 7.93182 36.2756C7.29682 35.7491 6.4619 35.3429 5.75557 35.0599L7.80119 27.4288C8.99416 27.6286 9.87276 27.6237 10.6049 27.4178C11.7154 27.1053 12.4471 26.3179 12.7796 25.0761L13.2728 23.2295L13.9964 23.4238C14.1869 23.4759 14.3492 23.601 14.448 23.772C14.5468 23.943 14.5742 24.1461 14.5242 24.3371L13.6712 27.5168C13.5912 27.818 13.634 28.1386 13.79 28.4084C13.946 28.6782 14.2026 28.8751 14.5036 28.956L17.4724 29.7506C17.664 29.8025 17.8273 29.928 17.9268 30.0998C18.0263 30.2716 18.0539 30.4757 18.0035 30.6677L18.0038 30.668ZM5.67182 26.7889V26.811C5.67182 26.9561 5.6142 27.0952 5.51164 27.1977C5.40908 27.3003 5.26998 27.3579 5.12494 27.3579C4.9799 27.3579 4.8408 27.3003 4.73824 27.1977C4.63569 27.0952 4.57807 26.9561 4.57807 26.811V26.7889C4.57807 26.6439 4.63569 26.5048 4.73824 26.4022C4.8408 26.2996 4.9799 26.242 5.12494 26.242C5.26998 26.242 5.40908 26.2996 5.51164 26.4022C5.6142 26.5048 5.67182 26.6439 5.67182 26.7889ZM39.9609 35.1688L37.1786 24.7809C37.0996 24.4912 36.9092 24.2446 36.6489 24.0948C36.3886 23.9451 36.0796 23.9045 35.7895 23.9818L32.6729 24.8168C32.3831 24.8961 32.1363 25.0865 31.9861 25.3466C31.8359 25.6068 31.7944 25.9157 31.8706 26.2063L31.9136 26.3669C29.6797 26.7224 28.6736 26.2709 28.2769 24.7941L27.7144 22.6874C27.6571 22.4758 27.5182 22.2955 27.3281 22.1862C27.1381 22.0768 26.9124 22.0473 26.7006 22.1041L25.7231 22.3673C25.2517 22.4938 24.8497 22.8021 24.6052 23.2245C24.3607 23.647 24.2937 24.1491 24.4189 24.6209L25.271 27.7971C25.2739 27.8079 25.2745 27.8191 25.273 27.8302C25.2714 27.8412 25.2677 27.8518 25.262 27.8614C25.2568 27.8707 25.2499 27.8788 25.2415 27.8853C25.2331 27.8918 25.2236 27.8966 25.2133 27.8993L22.2421 28.6945C21.9109 28.7829 21.6109 28.9622 21.3761 29.2119C21.1412 29.4617 20.9807 29.7721 20.9128 30.1082C20.8448 30.4442 20.872 30.7926 20.9914 31.114C21.1107 31.4354 21.3175 31.7171 21.5883 31.9273C21.5311 31.9996 21.4792 32.076 21.4331 32.1559C21.2901 32.4026 21.2064 32.6791 21.1886 32.9637C21.1708 33.2483 21.2193 33.5332 21.3304 33.7958C21.4415 34.0584 21.6121 34.2916 21.8288 34.477C22.0454 34.6624 22.3022 34.795 22.5788 34.8641C22.4751 35.1962 22.4681 35.551 22.5587 35.887C22.6521 36.2312 22.8431 36.5411 23.1087 36.7793C23.3742 37.0174 23.7029 37.1737 24.0553 37.2294C23.9745 37.5412 23.9768 37.8687 24.0621 38.1792C24.1475 38.4898 24.3127 38.7726 24.5414 38.9994C24.7701 39.2262 25.0543 39.389 25.3656 39.4717C25.6769 39.5543 26.0044 39.5539 26.3155 39.4705L30.2551 38.4141C31.179 38.1767 32.0373 37.7333 32.7656 37.1173C33.1812 36.7727 33.7956 36.4283 34.5295 36.1251L34.6534 36.5871C34.7174 36.8283 34.8592 37.0416 35.0567 37.194C35.2543 37.3464 35.4967 37.4294 35.7462 37.4301C35.8459 37.4301 35.9452 37.4169 36.0414 37.391L39.1603 36.5559C39.4502 36.4777 39.6973 36.2878 39.8473 36.0278C39.9974 35.7678 40.0382 35.4589 39.9609 35.1688ZM32.0678 36.2753C31.4597 36.7895 30.7432 37.1594 29.9718 37.3575L26.0324 38.4138C25.8406 38.4639 25.6367 38.4361 25.4651 38.3367C25.2936 38.2372 25.1682 38.074 25.1163 37.8826C25.067 37.697 25.0908 37.4995 25.1828 37.3309C25.2747 37.1623 25.4279 37.0354 25.6106 36.9763L27.2269 36.543H27.2279C27.368 36.5054 27.4875 36.4138 27.5601 36.2882C27.6326 36.1626 27.6523 36.0133 27.6148 35.8731C27.5773 35.733 27.4856 35.6135 27.36 35.541C27.2344 35.4684 27.0851 35.4487 26.9449 35.4862L25.3624 35.9096C25.3439 35.9145 25.3256 35.9198 25.3077 35.9252L24.5342 36.1327C24.3911 36.1715 24.2396 36.1669 24.0991 36.1194C23.9585 36.0719 23.8353 35.9836 23.7451 35.8659C23.6549 35.7482 23.6017 35.6063 23.5923 35.4582C23.5829 35.3102 23.6178 35.1627 23.6924 35.0345C23.7844 34.8732 23.9335 34.7522 24.1103 34.6954L26.5578 34.0382C26.6979 34.0006 26.8173 33.9089 26.8898 33.7832C26.9623 33.6575 26.9818 33.5082 26.9442 33.3681C26.9066 33.228 26.8149 33.1086 26.6892 33.0361C26.5636 32.9636 26.4143 32.944 26.2742 32.9816L23.8632 33.6281C23.844 33.6333 23.8249 33.6387 23.8059 33.6444L23.2232 33.8006C23.1282 33.8261 23.029 33.8326 22.9314 33.8198C22.8338 33.807 22.7397 33.7751 22.6545 33.7259C22.5692 33.6767 22.4945 33.6112 22.4346 33.5331C22.3746 33.455 22.3307 33.3659 22.3052 33.2709C22.2797 33.1758 22.2732 33.0766 22.286 32.9791C22.2988 32.8815 22.3307 32.7874 22.3799 32.7021C22.4291 32.6169 22.4946 32.5421 22.5727 32.4822C22.6508 32.4223 22.7399 32.3783 22.8349 32.3528L25.8577 31.5423C25.9978 31.5047 26.1173 31.413 26.1898 31.2873C26.2623 31.1617 26.2819 31.0124 26.2443 30.8723C26.2067 30.7321 26.115 30.6127 25.9894 30.5402C25.8637 30.4677 25.7144 30.448 25.5743 30.4856L22.9153 31.1985C22.8202 31.224 22.721 31.2306 22.6235 31.2177C22.5259 31.2049 22.4318 31.173 22.3465 31.1238C22.2613 31.0746 22.1865 31.0092 22.1266 30.9311C22.0667 30.853 22.0227 30.7639 21.9972 30.6689C21.9717 30.5738 21.9651 30.4747 21.9779 30.3771C21.9908 30.2795 22.0227 30.1854 22.0719 30.1001C22.121 30.0149 22.1865 29.9401 22.2646 29.8802C22.3427 29.8203 22.4318 29.7763 22.5268 29.7508L25.4951 28.9562C25.7964 28.8752 26.0533 28.678 26.2095 28.4079C26.3656 28.1378 26.4083 27.8168 26.3281 27.5152L25.4756 24.3377C25.4255 24.1461 25.4531 23.9425 25.5525 23.7713C25.6519 23.6 25.815 23.4751 26.0062 23.4236L26.7269 23.2296L27.2202 25.0773C27.5537 26.3184 28.2858 27.1059 29.3963 27.4181C30.1285 27.6239 31.0065 27.6291 32.1984 27.4291L34.2441 35.0605C33.5377 35.3429 32.7031 35.7486 32.0678 36.2753ZM38.9 35.4805C38.8976 35.4851 38.8943 35.4891 38.8902 35.4924C38.8862 35.4956 38.8816 35.498 38.8766 35.4995L35.7578 36.3346C35.7528 36.336 35.7476 36.3363 35.7425 36.3356C35.7374 36.3349 35.7325 36.3331 35.7281 36.3304C35.7236 36.328 35.7198 36.3247 35.7168 36.3206C35.7138 36.3166 35.7118 36.3119 35.7109 36.307L35.4345 35.2757C35.4321 35.2655 35.4292 35.2554 35.4263 35.2452L32.928 25.9259C32.9254 25.9151 32.9269 25.9038 32.9322 25.894C32.9376 25.8843 32.9463 25.8769 32.9567 25.8733L36.0726 25.0382H36.0734C36.0762 25.0374 36.079 25.037 36.0819 25.037C36.0908 25.0372 36.0994 25.04 36.1066 25.0451C36.1138 25.0502 36.1194 25.0574 36.1224 25.0657L38.9043 35.4536C38.9054 35.4581 38.9056 35.4629 38.9049 35.4675C38.9042 35.4721 38.9025 35.4766 38.9 35.4805ZM35.4218 26.7889V26.811C35.4218 26.8828 35.4077 26.9539 35.3802 27.0203C35.3527 27.0866 35.3124 27.1469 35.2616 27.1977C35.2109 27.2485 35.1506 27.2888 35.0842 27.3163C35.0179 27.3437 34.9468 27.3579 34.8749 27.3579C34.8031 27.3579 34.732 27.3437 34.6657 27.3163C34.5993 27.2888 34.539 27.2485 34.4882 27.1977C34.4375 27.1469 34.3972 27.0866 34.3697 27.0203C34.3422 26.9539 34.3281 26.8828 34.3281 26.811V26.7889C34.3281 26.7171 34.3422 26.646 34.3697 26.5796C34.3972 26.5133 34.4375 26.453 34.4882 26.4022C34.539 26.3514 34.5993 26.3111 34.6657 26.2837C34.732 26.2562 34.8031 26.242 34.8749 26.242C34.9468 26.242 35.0179 26.2562 35.0842 26.2837C35.1506 26.3111 35.2109 26.3514 35.2616 26.4022C35.3124 26.453 35.3527 26.5133 35.3802 26.5796C35.4077 26.646 35.4218 26.7171 35.4218 26.7889ZM24.7453 21.496C24.8625 21.4107 24.9496 21.2904 24.9941 21.1524C25.0386 21.0144 25.0382 20.8659 24.9929 20.7281L23.4784 16.1007L27.4278 13.2431C27.5445 13.1571 27.631 13.0364 27.6751 12.8983C27.7192 12.7601 27.7185 12.6116 27.6731 12.4739C27.6278 12.3362 27.5401 12.2163 27.4225 12.1314C27.305 12.0464 27.1637 12.0008 27.0187 12.0009L22.1494 12.0112L20.6538 7.37914C20.6103 7.24125 20.5241 7.12074 20.4077 7.03499C20.2913 6.94924 20.1506 6.90268 20.006 6.90203H20.0005C19.8552 6.90172 19.7135 6.94758 19.596 7.03298C19.4784 7.11837 19.391 7.23891 19.3463 7.37719L17.8502 12.0112L12.9797 12.0009C12.8344 12.0009 12.6928 12.047 12.5752 12.1325C12.4577 12.218 12.3703 12.3386 12.3256 12.4768C12.2808 12.6151 12.2811 12.764 12.3263 12.9022C12.3714 13.0403 12.4592 13.1606 12.5771 13.2457L16.5213 16.1007L15.0088 20.7282C14.9633 20.8663 14.9627 21.0153 15.0072 21.1537C15.0518 21.2921 15.1391 21.4128 15.2567 21.4984C15.3743 21.584 15.516 21.63 15.6614 21.6299C15.8068 21.6298 15.9484 21.5835 16.0658 21.4977L19.9999 18.6277L23.9367 21.4994C24.0545 21.5844 24.1962 21.6299 24.3415 21.6293C24.4868 21.6287 24.6282 21.582 24.7453 21.496ZM20.3221 17.5088C20.2285 17.4405 20.1157 17.4037 19.9998 17.4037C19.8839 17.4037 19.771 17.4405 19.6774 17.5088L16.4401 19.8702L17.6851 16.0611C17.7211 15.951 17.7212 15.8323 17.6854 15.7222C17.6496 15.612 17.5798 15.516 17.486 15.4481L14.2381 13.0966L18.247 13.105H18.2481C18.3638 13.105 18.4765 13.0684 18.57 13.0003C18.6635 12.9322 18.7331 12.8362 18.7686 12.7261L19.9999 8.9132L21.2311 12.7263C21.2667 12.8366 21.3364 12.9327 21.4302 13.0008C21.5239 13.0689 21.6369 13.1055 21.7528 13.1052L25.7634 13.0968L22.5139 15.4479C22.4199 15.5158 22.35 15.6118 22.3142 15.722C22.2784 15.8323 22.2786 15.951 22.3146 16.0612L23.5618 19.8717L20.3221 17.5088ZM27.2798 15.227C27.2373 15.3572 27.2374 15.4975 27.2799 15.6277C27.3224 15.7579 27.4053 15.8712 27.5164 15.9513L30.2913 17.9586L29.228 21.2139C29.1852 21.3442 29.1849 21.4847 29.227 21.6152C29.2691 21.7457 29.3515 21.8595 29.4623 21.9403C29.5732 22.021 29.7068 22.0645 29.8439 22.0646C29.9811 22.0646 30.1147 22.0211 30.2256 21.9405L32.9921 19.921L35.7611 21.9416C35.8723 22.0219 36.006 22.0649 36.1431 22.0645C36.2803 22.0641 36.4137 22.0204 36.5244 21.9395C36.6352 21.8586 36.7174 21.7447 36.7595 21.6142C36.8015 21.4837 36.8011 21.3432 36.7585 21.2129L35.6937 17.9585L38.4678 15.9516C38.5792 15.8714 38.6621 15.7578 38.7048 15.6274C38.7475 15.4969 38.7477 15.3563 38.7054 15.2257C38.663 15.0951 38.5804 14.9814 38.4692 14.9008C38.3581 14.8202 38.2243 14.7769 38.0871 14.7773L34.6616 14.7832L33.6104 11.5245L33.6087 11.5195C33.5651 11.3891 33.4814 11.2759 33.3694 11.1961C33.2574 11.1164 33.123 11.0743 32.9856 11.0758C32.8497 11.0765 32.7176 11.1204 32.6082 11.2009C32.4987 11.2815 32.4177 11.3947 32.3767 11.5242L31.3235 14.7832L27.8967 14.7773C27.7595 14.7771 27.6258 14.8206 27.5149 14.9014C27.4039 14.9822 27.3216 15.0962 27.2798 15.227ZM31.7203 15.878H31.7213C31.837 15.8781 31.9498 15.8414 32.0434 15.7734C32.137 15.7053 32.2066 15.6093 32.2421 15.4991L32.9935 13.1742L33.7435 15.4988C33.779 15.609 33.8485 15.705 33.942 15.7732C34.0356 15.8413 34.1483 15.878 34.2641 15.878H34.265L36.7097 15.8737L34.7296 17.3061C34.6357 17.374 34.5658 17.47 34.53 17.5802C34.4942 17.6905 34.4943 17.8092 34.5303 17.9194L35.291 20.2439L33.3148 18.8022C33.2212 18.7339 33.1083 18.697 32.9924 18.697C32.8765 18.697 32.7636 18.7339 32.6699 18.8022L30.6961 20.2427L31.4551 17.9191C31.4911 17.8089 31.4911 17.6902 31.4553 17.5801C31.4194 17.4699 31.3495 17.374 31.2556 17.3061L29.2756 15.8737L31.7203 15.878ZM1.53119 15.9513L4.30588 17.9585L3.2408 21.213C3.23955 21.217 3.2383 21.2209 3.23713 21.225C3.19737 21.3553 3.19956 21.4947 3.24338 21.6237C3.2872 21.7526 3.37044 21.8646 3.48134 21.9436C3.59223 22.0227 3.72517 22.0649 3.86137 22.0643C3.99757 22.0637 4.13014 22.0204 4.24033 21.9403L7.00713 19.921L9.77612 21.9416C9.88645 22.0211 10.0189 22.0639 10.1549 22.0641C10.2908 22.0643 10.4234 22.0219 10.534 21.9427C10.6445 21.8636 10.7275 21.7518 10.7711 21.623C10.8148 21.4943 10.817 21.3551 10.7774 21.225C10.7761 21.2209 10.7748 21.2172 10.7735 21.2129L9.70846 17.9585L12.4826 15.9516C12.594 15.8713 12.6769 15.7578 12.7196 15.6273C12.7623 15.4968 12.7625 15.3561 12.7201 15.2256C12.6777 15.095 12.595 14.9812 12.4838 14.9006C12.3727 14.8201 12.2388 14.7769 12.1015 14.7773L8.67604 14.7832L7.62494 11.5245L7.6233 11.5196C7.57998 11.3899 7.49683 11.2771 7.38569 11.1974C7.27456 11.1177 7.1411 11.0751 7.00434 11.0756C6.86757 11.0762 6.73446 11.1199 6.62396 11.2005C6.51347 11.2811 6.43122 11.3945 6.38893 11.5245L5.33799 14.7832L1.91158 14.7773C1.77446 14.7771 1.64083 14.8205 1.52989 14.9011C1.41896 14.9817 1.33643 15.0954 1.29416 15.2258C1.25189 15.3563 1.25207 15.4968 1.29466 15.6271C1.33725 15.7574 1.42006 15.8709 1.53119 15.9513ZM5.7351 15.878H5.73604C5.85176 15.878 5.9645 15.8413 6.05804 15.7731C6.15158 15.705 6.22109 15.609 6.25658 15.4988L7.00713 13.1721L7.75776 15.4991C7.79325 15.6093 7.86277 15.7053 7.95631 15.7735C8.04984 15.8416 8.16258 15.8783 8.2783 15.8783H8.27924L10.724 15.874L8.74385 17.3064C8.64994 17.3743 8.58004 17.4703 8.54424 17.5806C8.50843 17.6908 8.50857 17.8095 8.54463 17.9197L9.30533 20.2442L7.32963 18.8022C7.23601 18.7338 7.12309 18.697 7.00717 18.697C6.89125 18.697 6.77833 18.7338 6.68471 18.8022L4.70901 20.2439L5.46971 17.9194C5.50576 17.8092 5.50589 17.6905 5.47007 17.5802C5.43425 17.47 5.36433 17.374 5.27041 17.3061L3.29033 15.8737L5.7351 15.878ZM26.6335 8.2957L30.4137 6.11219C30.4759 6.07628 30.5446 6.05297 30.6158 6.0436C30.687 6.03423 30.7593 6.03897 30.8287 6.05756C30.8981 6.07615 30.9631 6.10822 31.0201 6.15195C31.077 6.19567 31.1249 6.25018 31.1608 6.31238C31.1967 6.37458 31.22 6.44324 31.2294 6.51445C31.2387 6.58565 31.234 6.65801 31.2154 6.72738C31.1968 6.79675 31.1647 6.86178 31.121 6.91876C31.0773 6.97574 31.0228 7.02355 30.9606 7.05945L27.1804 9.24297C27.1182 9.27888 27.0496 9.30218 26.9783 9.31156C26.9071 9.32093 26.8348 9.31618 26.7654 9.2976C26.696 9.27901 26.631 9.24693 26.574 9.20321C26.5171 9.15949 26.4692 9.10497 26.4333 9.04277C26.3974 8.98058 26.3741 8.91191 26.3648 8.84071C26.3554 8.7695 26.3601 8.69715 26.3787 8.62778C26.3973 8.5584 26.4294 8.49337 26.4731 8.4364C26.5168 8.37942 26.5713 8.33161 26.6335 8.2957ZM13.5734 3.15656C13.5009 3.03093 13.4812 2.88163 13.5188 2.74151C13.5563 2.60139 13.648 2.48193 13.7737 2.40941C13.8993 2.33689 14.0486 2.31725 14.1887 2.35481C14.3288 2.39237 14.4483 2.48405 14.5208 2.60969L16.7043 6.39203C16.7768 6.51766 16.7965 6.66695 16.7589 6.80706C16.7214 6.94717 16.6297 7.06662 16.5041 7.13914C16.3785 7.21166 16.2292 7.23131 16.0891 7.19376C15.9489 7.1562 15.8295 7.06453 15.757 6.93891L13.5734 3.15656ZM23.4346 5.87625L25.6158 2.09391C25.6517 2.03168 25.6995 1.97713 25.7565 1.93338C25.8135 1.88963 25.8786 1.85753 25.9479 1.83892C26.0173 1.82031 26.0897 1.81555 26.161 1.82491C26.2322 1.83427 26.3009 1.85757 26.3631 1.89348C26.4253 1.92938 26.4799 1.9772 26.5236 2.03419C26.5674 2.09118 26.5995 2.15622 26.6181 2.22562C26.6367 2.29501 26.6415 2.36739 26.6321 2.43863C26.6227 2.50986 26.5994 2.57855 26.5635 2.64078L24.3823 6.42312C24.3098 6.5488 24.1903 6.64052 24.0501 6.67811C23.91 6.7157 23.7607 6.69607 23.635 6.62356C23.5093 6.55103 23.4176 6.43156 23.38 6.29141C23.3424 6.15127 23.362 6.00193 23.4346 5.87625ZM9.35479 7.20688C9.3907 7.14466 9.43853 7.09013 9.49552 7.0464C9.55252 7.00267 9.61757 6.9706 9.68697 6.95202C9.75636 6.93344 9.82874 6.92871 9.89996 6.93811C9.97118 6.94751 10.0399 6.97085 10.1021 7.0068L13.8823 9.19039C13.9445 9.2263 13.999 9.27411 14.0427 9.33108C14.0864 9.38806 14.1185 9.45309 14.1371 9.52246C14.1557 9.59184 14.1604 9.66419 14.1511 9.7354C14.1417 9.8066 14.1184 9.87526 14.0825 9.93746C14.0466 9.99966 13.9988 10.0542 13.9418 10.0979C13.8848 10.1416 13.8198 10.1737 13.7504 10.1923C13.681 10.2109 13.6087 10.2156 13.5375 10.2062C13.4663 10.1969 13.3976 10.1736 13.3354 10.1377L9.55463 7.95406C9.49244 7.91813 9.43795 7.87029 9.39425 7.81329C9.35055 7.75629 9.3185 7.69125 9.29995 7.62186C9.28139 7.55248 9.27668 7.48012 9.28609 7.40891C9.2955 7.33771 9.31884 7.26906 9.35479 7.20688ZM19.4531 5.37891V1.01172C19.4531 0.866679 19.5107 0.727579 19.6132 0.62502C19.7158 0.522461 19.8549 0.464844 19.9999 0.464844C20.145 0.464844 20.2841 0.522461 20.3866 0.62502C20.4892 0.727579 20.5468 0.866679 20.5468 1.01172V5.37891C20.5468 5.52395 20.4892 5.66305 20.3866 5.7656C20.2841 5.86816 20.145 5.92578 19.9999 5.92578C19.8549 5.92578 19.7158 5.86816 19.6132 5.7656C19.5107 5.66305 19.4531 5.52395 19.4531 5.37891Z" fill="white"/>
</g>
</g>
<defs>
<clipPath id="clip0_385_3371">
<rect width="40" height="40" fill="white"/>
</clipPath>
</defs>
</svg>
