<svg width="40" height="40" viewBox="0 0 40 40" fill="none" xmlns="http://www.w3.org/2000/svg">
<g id="Frame">
<g id="Group">
<path id="Vector" d="M5.28142 26.1844C5.32275 26.2553 5.3497 26.3336 5.36074 26.415C5.37178 26.4963 5.36669 26.579 5.34576 26.6584C5.32483 26.7377 5.28847 26.8122 5.23876 26.8775C5.18904 26.9428 5.12695 26.9977 5.05603 27.039C4.98512 27.0803 4.90675 27.1073 4.82541 27.1184C4.74407 27.1294 4.66134 27.1244 4.58197 27.1034C4.50259 27.0825 4.42812 27.0461 4.36281 26.9964C4.2975 26.9467 4.24263 26.8845 4.20134 26.8136C2.65782 24.1645 1.84204 21.1348 1.84204 18.0525C1.84204 13.3974 3.65485 9.02094 6.9465 5.72937C10.2381 2.43781 14.6145 0.625 19.2696 0.625C22.9126 0.625 26.4659 1.77391 29.4107 3.88102L29.0998 2.79117C29.0543 2.63176 29.074 2.46082 29.1546 2.31595C29.2351 2.17107 29.3699 2.06411 29.5293 2.01859C29.6887 1.97318 29.8597 1.99292 30.0045 2.07348C30.1494 2.15404 30.2564 2.28882 30.3019 2.4482L31.1524 5.42898C31.1784 5.52018 31.1834 5.61611 31.1668 5.7095C31.1503 5.80289 31.1127 5.8913 31.057 5.96802C31.0012 6.04473 30.9287 6.10775 30.845 6.15229C30.7612 6.19683 30.6685 6.22172 30.5737 6.22508L27.4759 6.33641C27.3102 6.34235 27.149 6.28225 27.0276 6.16932C26.9063 6.05638 26.8348 5.89988 26.8288 5.73422C26.8229 5.56856 26.883 5.40733 26.9959 5.28599C27.1089 5.16464 27.2654 5.09313 27.431 5.08719L28.8736 5.03539C26.1037 2.99141 22.7302 1.875 19.2696 1.875C10.3493 1.875 3.09204 9.13227 3.09204 18.0526C3.09204 20.9141 3.84915 23.726 5.28142 26.1844ZM22.3421 18.0882C22.5079 18.0882 22.6669 18.1541 22.7841 18.2713C22.9013 18.3885 22.9671 18.5474 22.9671 18.7132C22.9671 20.752 21.3085 22.4107 19.2697 22.4107C17.2309 22.4107 15.5723 20.752 15.5723 18.7132C15.5723 18.5474 15.6381 18.3885 15.7553 18.2713C15.8725 18.1541 16.0315 18.0882 16.1973 18.0882H22.3421ZM21.6362 19.3382H16.9031C17.1799 20.386 18.1359 21.1607 19.2696 21.1607C20.4033 21.1607 21.3593 20.386 21.6362 19.3382ZM31.526 15.0532C31.5354 15.1404 31.5263 15.2286 31.4994 15.312C31.4724 15.3955 31.4282 15.4723 31.3696 15.5375C31.3109 15.6028 31.2392 15.6549 31.1591 15.6906C31.079 15.7263 30.9923 15.7447 30.9046 15.7447H24.5186C24.5333 15.8366 24.5462 15.9291 24.5562 16.0227C24.5656 16.1099 24.5565 16.1981 24.5295 16.2816C24.5026 16.365 24.4583 16.4419 24.3997 16.5071C24.3411 16.5723 24.2694 16.6245 24.1893 16.6602C24.1092 16.6958 24.0225 16.7143 23.9348 16.7142L14.6044 16.7143C14.5167 16.7143 14.43 16.6958 14.3499 16.6601C14.2698 16.6244 14.1982 16.5723 14.1396 16.5071C14.081 16.4418 14.0367 16.365 14.0098 16.2816C13.9828 16.1982 13.9737 16.11 13.983 16.0228C13.9931 15.9298 14.0056 15.837 14.0206 15.7447H7.6347C7.54702 15.7447 7.46033 15.7262 7.38026 15.6905C7.30018 15.6548 7.22851 15.6027 7.16991 15.5375C7.1113 15.4723 7.06707 15.3955 7.04009 15.312C7.01311 15.2286 7.00398 15.1405 7.01329 15.0533C7.19017 13.3998 8.22712 12.0357 9.65243 11.3819C9.21275 10.9123 8.94275 10.282 8.94275 9.58945C8.94275 8.14195 10.1203 6.9643 11.5678 6.9643C13.0153 6.9643 14.193 8.14188 14.193 9.58945C14.193 10.2845 13.9209 10.917 13.4784 11.3871C14.2342 11.7362 14.89 12.2866 15.3626 12.9816C15.8763 12.4266 16.5027 11.9877 17.1998 11.6943C16.6291 11.1482 16.2725 10.38 16.2725 9.52961C16.2725 7.87687 17.6171 6.53219 19.2699 6.53219C20.9226 6.53219 22.2673 7.87687 22.2673 9.52961C22.2673 10.38 21.9107 11.1482 21.3399 11.6943C22.037 11.9876 22.6634 12.4265 23.1771 12.9816C23.6497 12.2866 24.3056 11.7363 25.0613 11.3871C24.6188 10.917 24.3467 10.2846 24.3467 9.58945C24.3467 8.14195 25.5242 6.9643 26.9718 6.9643C28.4194 6.9643 29.597 8.14188 29.597 9.58945C29.597 10.282 29.3269 10.9123 28.8872 11.382C30.3121 12.0358 31.3491 13.3998 31.526 15.0532ZM26.9705 10.9645H26.9726C27.7304 10.9639 28.3467 10.3473 28.3467 9.58938C28.3467 8.83109 27.7298 8.21422 26.9715 8.21422C26.2132 8.21422 25.5963 8.83109 25.5963 9.58938C25.5965 10.3473 26.2127 10.9638 26.9705 10.9645ZM19.2681 11.277H19.2712C20.234 11.2761 21.017 10.4925 21.017 9.52953C21.017 8.56602 20.2331 7.78211 19.2696 7.78211C18.3061 7.78211 17.5223 8.56602 17.5223 9.52953C17.5223 10.4926 18.3053 11.2761 19.2681 11.277ZM11.5667 10.9645H11.5688C12.3265 10.9638 12.9428 10.3473 12.9428 9.58938C12.9428 8.83109 12.3259 8.21422 11.5677 8.21422C10.8094 8.21422 10.1926 8.83109 10.1926 9.58938C10.1927 10.3473 10.8089 10.9639 11.5667 10.9645ZM14.382 14.4947C14.439 14.3609 14.5015 14.2296 14.5693 14.101C14.0194 12.9625 12.8482 12.2151 11.5694 12.2145H11.566C10.1015 12.2152 8.84564 13.1567 8.40493 14.4947H14.382ZM23.1788 15.4642C22.688 13.7495 21.115 12.5277 19.2713 12.527H19.2681C17.4244 12.5277 15.8513 13.7496 15.3606 15.4643L23.1788 15.4642ZM30.1344 14.4947C29.6936 13.1567 28.4377 12.2152 26.9733 12.2145H26.9699C25.6911 12.2151 24.5199 12.9625 23.9699 14.101C24.0378 14.2296 24.1003 14.3609 24.1573 14.4947H30.1344ZM38.1581 30.2936C38.1581 35.3011 34.0842 39.375 29.0767 39.375C25.933 39.375 23.1575 37.7691 21.5267 35.3347C20.7782 35.4313 20.0243 35.4799 19.2696 35.4802C15.6264 35.4802 12.0732 34.3316 9.12884 32.2252L9.43954 33.3139C9.4661 33.407 9.47069 33.5049 9.45296 33.6C9.43523 33.6951 9.39566 33.7848 9.33737 33.8621C9.27908 33.9393 9.20366 34.002 9.11704 34.0451C9.03042 34.0882 8.93497 34.1107 8.83821 34.1106C8.70239 34.1105 8.5703 34.0662 8.46192 33.9843C8.35354 33.9024 8.27476 33.7875 8.23751 33.6569L7.38704 30.6761C7.36099 30.5849 7.35604 30.489 7.37256 30.3956C7.38909 30.3022 7.42666 30.2138 7.48242 30.1371C7.53819 30.0603 7.61068 29.9973 7.69442 29.9528C7.77815 29.9083 7.87093 29.8834 7.96571 29.88L11.0635 29.7687C11.4084 29.7592 11.6982 30.0259 11.7106 30.3709C11.7135 30.4529 11.7003 30.5347 11.6716 30.6116C11.6429 30.6885 11.5994 30.759 11.5435 30.8191C11.4876 30.8792 11.4203 30.9277 11.3457 30.9618C11.271 30.9959 11.1904 31.0149 11.1084 31.0179L9.6647 31.0698C12.4343 33.1137 15.8082 34.2302 19.2697 34.2302C19.7995 34.2302 20.3307 34.204 20.8574 34.1528C20.3859 33.1533 20.1023 32.0756 20.0208 30.9734H17.6951C17.5688 30.9734 17.4454 30.9352 17.3413 30.8637C17.2372 30.7921 17.1572 30.6908 17.1118 30.5729L16.4856 28.9462C15.6178 28.7105 14.7837 28.3647 14.0037 27.9172L12.4095 28.6252C12.294 28.6765 12.1658 28.6915 12.0416 28.6685C11.9175 28.6454 11.8032 28.5853 11.7138 28.496L9.48696 26.2691C9.39766 26.1798 9.33751 26.0656 9.31444 25.9414C9.29138 25.8172 9.30647 25.6889 9.35775 25.5735L10.0656 23.9799C9.61795 23.1997 9.27204 22.3654 9.03634 21.4973L7.41001 20.8713C7.29214 20.8259 7.19078 20.7459 7.11929 20.6417C7.04781 20.5376 7.00954 20.4143 7.00954 20.288V18.7133C7.00954 18.5475 7.07539 18.3885 7.1926 18.2713C7.30981 18.1541 7.46878 18.0883 7.63454 18.0883H13.7775C13.9433 18.0883 14.1022 18.1541 14.2195 18.2713C14.3367 18.3885 14.4025 18.5475 14.4025 18.7133C14.4025 21.3972 16.5859 23.5806 19.2698 23.5806C21.9536 23.5806 24.137 21.3972 24.137 18.7133C24.137 18.5475 24.2029 18.3885 24.3201 18.2713C24.4373 18.1541 24.5963 18.0883 24.762 18.0883H30.9049C31.0707 18.0883 31.2297 18.1541 31.3469 18.2713C31.4641 18.3885 31.5299 18.5475 31.5299 18.7133V20.2879C31.5299 20.4142 31.4917 20.5375 31.4202 20.6417C31.3487 20.7458 31.2473 20.8258 31.1295 20.8712L30.0945 21.2695C31.7937 21.4599 33.3524 22.1207 34.6372 23.1187C35.1745 21.4895 35.4474 19.7896 35.4474 18.0527C35.4474 15.1918 34.6903 12.3804 33.258 9.92219C33.2167 9.85128 33.1897 9.77292 33.1787 9.69159C33.1676 9.61026 33.1727 9.52755 33.1936 9.44819C33.2146 9.36883 33.2509 9.29437 33.3006 9.22906C33.3504 9.16375 33.4124 9.10888 33.4834 9.06758C33.5543 9.02624 33.6326 8.99927 33.714 8.98823C33.7953 8.97718 33.878 8.98227 33.9574 9.0032C34.0367 9.02413 34.1112 9.06049 34.1765 9.11021C34.2418 9.15993 34.2967 9.22204 34.338 9.29297C35.8815 11.942 36.6974 14.9711 36.6974 18.0527C36.6974 20.1084 36.3435 22.1166 35.6452 24.0287C37.2013 25.6594 38.1581 27.8668 38.1581 30.2936ZM23.4707 23.1538C24.818 22.0936 26.4715 21.4066 28.2744 21.248C28.3083 21.1278 28.3397 21.0069 28.3687 20.8854C28.3922 20.7866 28.4394 20.6951 28.5062 20.6187C28.573 20.5422 28.6575 20.4832 28.7522 20.4468L30.2799 19.8587V19.3383H25.3553C25.2026 20.8349 24.507 22.1727 23.4707 23.1538ZM18.1242 29.7234H20.0137C20.1643 27.3038 21.2663 25.1379 22.9497 23.5966C21.9249 24.3708 20.65 24.8305 19.2696 24.8305C16.1076 24.8305 13.4982 22.4188 13.184 19.3382H8.25946V19.8587L9.78673 20.4466C9.88145 20.483 9.96586 20.542 10.0327 20.6184C10.0995 20.6948 10.1467 20.7863 10.1702 20.8851C10.3992 21.8479 10.7807 22.768 11.3 23.6105C11.3533 23.6969 11.3847 23.795 11.3915 23.8963C11.3983 23.9976 11.3803 24.0991 11.3391 24.1919L10.6743 25.6886L12.2942 27.3085L13.7915 26.6435C13.8843 26.6023 13.9857 26.5843 14.087 26.5911C14.1883 26.5979 14.2864 26.6293 14.3728 26.6825C15.2151 27.2017 16.1349 27.583 17.0975 27.8121C17.1963 27.8356 17.2878 27.8828 17.3643 27.9496C17.4407 28.0164 17.4997 28.1009 17.5361 28.1956L18.1242 29.7234ZM36.9081 30.2936C36.9081 25.9754 33.3949 22.4622 29.0767 22.4622C24.7585 22.4622 21.2453 25.9754 21.2453 30.2936C21.2453 34.6118 24.7584 38.125 29.0767 38.125C33.395 38.125 36.9081 34.6118 36.9081 30.2936ZM34.9417 26.2232V27.7748C34.9417 29.4311 33.9268 30.6326 32.2095 31.0388C32.0977 31.2351 31.9736 31.4241 31.8378 31.6047C31.3957 32.1903 30.88 32.6222 30.3265 32.8827C30.4699 33.5667 31.0765 34.0859 31.8014 34.0916C31.9664 34.0929 32.1241 34.1594 32.2403 34.2765C32.3565 34.3936 32.4218 34.5518 32.4218 34.7168V35.5771C32.4218 35.7429 32.356 35.9018 32.2388 36.0191C32.1215 36.1363 31.9626 36.2021 31.7968 36.2021H26.3568C26.191 36.2021 26.0321 36.1363 25.9149 36.0191C25.7977 35.9018 25.7318 35.7429 25.7318 35.5771V34.7168C25.7318 34.5518 25.7971 34.3936 25.9132 34.2765C26.0294 34.1594 26.1872 34.0929 26.3521 34.0916C27.077 34.0859 27.6837 33.5667 27.827 32.8827C27.2735 32.6222 26.7578 32.1904 26.3158 31.6048C26.18 31.4242 26.0558 31.2352 25.944 31.0388C24.2268 30.6326 23.212 29.4312 23.212 27.7748V26.2233C23.212 26.0575 23.2778 25.8986 23.395 25.7813C23.5122 25.6641 23.6712 25.5983 23.837 25.5983H25.2485V25.0102C25.2485 24.8444 25.3144 24.6854 25.4316 24.5682C25.5488 24.451 25.7078 24.3852 25.8735 24.3852H32.2801C32.4459 24.3852 32.6048 24.451 32.722 24.5682C32.8392 24.6854 32.9051 24.8444 32.9051 25.0102V25.5983H34.3167C34.4825 25.5983 34.6414 25.6641 34.7586 25.7813C34.8758 25.8985 34.9417 26.0575 34.9417 26.2232ZM25.3412 29.4565C25.281 29.163 25.2484 28.871 25.2484 28.589V26.8482H24.4618V27.7748C24.4618 28.6313 24.8599 29.1466 25.3412 29.4565ZM29.1099 33.1698C29.0988 33.1699 29.0878 33.1709 29.0767 33.1709C29.0656 33.1709 29.0546 33.1699 29.0435 33.1698C28.876 33.9244 28.3988 34.5661 27.7524 34.952H30.401C29.7547 34.5662 29.2774 33.9244 29.1099 33.1698ZM31.655 25.6351H26.4984V28.5891C26.4984 30.0577 27.7124 31.9209 29.0767 31.9209C30.4411 31.9209 31.655 30.0577 31.655 28.5891V25.6351ZM33.6917 26.8482H32.905V28.589C32.905 28.871 32.8724 29.163 32.8122 29.4566C33.2934 29.1466 33.6917 28.6314 33.6917 27.7748V26.8482Z" fill="white"/>
</g>
</g>
</svg>
