<svg width="50" height="50" viewBox="0 0 50 50" fill="none" xmlns="http://www.w3.org/2000/svg">
<g id="Frame" clip-path="url(#clip0_367_2505)">
<g id="Group">
<path id="Vector" d="M30.0758 29.9547C29.8889 29.7674 29.6669 29.6188 29.4225 29.5174C29.1781 29.416 28.9161 29.3639 28.6515 29.3639C28.3869 29.3639 28.1249 29.416 27.8806 29.5174C27.6362 29.6188 27.4142 29.7674 27.2273 29.9547L19.2954 37.8865C17.3182 39.8638 14.1818 40.0228 12.1515 38.2501C11.5979 37.765 11.1542 37.1675 10.8498 36.4973C10.5454 35.8272 10.3874 35.0998 10.3864 34.3638C10.3864 32.9925 10.9167 31.6971 11.8939 30.7274L19.947 22.6744C20.1342 22.4875 20.2828 22.2655 20.3842 22.0211C20.4856 21.7767 20.5378 21.5147 20.5378 21.2501C20.5378 20.9855 20.4856 20.7236 20.3842 20.4792C20.2828 20.2348 20.1342 20.0128 19.947 19.8259L16.1591 16.038C15.3939 15.2728 14.0682 15.2728 13.3106 16.038L10.6439 18.7047L5.03787 24.3107C-0.628795 29.9774 -0.628795 39.2047 5.04545 44.8789C7.87878 47.7122 11.6061 49.1289 15.3257 49.1289C19.0454 49.1289 22.7727 47.7122 25.6061 44.8789L31.2121 39.2728L33.8788 36.6062C34.2576 36.2274 34.4697 35.7198 34.4697 35.1819C34.4697 34.6441 34.2576 34.1365 33.8788 33.7577L30.0758 29.9547ZM14.0909 16.8107C14.2651 16.6365 14.5 16.5456 14.7348 16.5456C14.9697 16.5456 15.197 16.6365 15.3712 16.8107L19.1591 20.5986C19.5151 20.9547 19.5151 21.5228 19.1591 21.8789L16.8788 24.1592L11.8106 19.091L14.0909 16.8107ZM24.8106 44.0835C19.5758 49.3183 11.053 49.3183 5.8106 44.0759C0.575751 38.841 0.575751 30.3183 5.8106 25.0835L11.0227 19.8713L16.0909 24.9395L11.0985 29.9319C10.5159 30.5118 10.0539 31.2013 9.73927 31.9607C9.4246 32.72 9.26346 33.5342 9.26514 34.3562C9.26514 36.1668 10.0454 37.8865 11.4091 39.0759C13.8712 41.235 17.6742 41.0531 20.0682 38.6592L24.9394 33.788L30.0076 38.8562L24.8106 44.0835ZM33.0833 35.8107L30.803 38.091L25.7348 33.0228L28.0151 30.7425C28.3712 30.3865 28.947 30.3941 29.2954 30.7425L33.0833 34.5304C33.4394 34.8789 33.4394 35.4547 33.0833 35.8107ZM24.1894 17.9395C27.0151 17.9395 29.6515 16.5456 31.2424 14.2047C32.2045 12.7728 32.7197 11.1138 32.7197 9.40921C32.7197 4.70466 28.8939 0.878906 24.1894 0.878906C19.4848 0.878906 15.6591 4.70466 15.6591 9.40921C15.6611 11.671 16.5605 13.8395 18.1598 15.4388C19.7591 17.0381 21.9276 17.9375 24.1894 17.9395ZM24.1894 16.8259C21.8636 16.8259 19.697 15.7274 18.2954 13.8941C18.9755 12.9938 19.8529 12.2614 20.8602 11.7532C21.8675 11.245 22.9779 10.9744 24.1061 10.9622C24.1364 10.9622 24.1591 10.9698 24.1894 10.9698C24.2197 10.9698 24.2424 10.9622 24.2727 10.9622C26.5682 10.985 28.7045 12.0759 30.0833 13.8941C28.6818 15.7274 26.5151 16.8259 24.1894 16.8259ZM21.9621 8.67436C21.6591 8.21982 21.4924 7.69709 21.4924 7.15921C21.4924 5.67436 22.7045 4.46224 24.1894 4.46224C25.6742 4.46224 26.8864 5.67436 26.8864 7.15921C26.8864 7.69709 26.7273 8.22739 26.4167 8.67436C25.9242 9.39406 25.1136 9.82588 24.2424 9.8486H24.1364C23.2576 9.82588 22.447 9.39406 21.9621 8.67436ZM24.1894 1.98497C28.2803 1.98497 31.6061 5.31072 31.6061 9.40163C31.6061 10.6289 31.2879 11.8183 30.7121 12.8941C29.6061 11.5683 28.1364 10.6289 26.5 10.1668C26.9635 9.8125 27.3393 9.35624 27.5981 8.83337C27.8569 8.3105 27.9918 7.73505 27.9924 7.15163C27.9924 5.05315 26.2879 3.3486 24.1894 3.3486C22.0909 3.3486 20.3788 5.06072 20.3788 7.15921C20.3788 7.92436 20.6061 8.65921 21.0379 9.30315C21.2727 9.64406 21.553 9.93194 21.8712 10.1744C20.2348 10.6365 18.7651 11.5759 17.6591 12.9016C17.0773 11.8292 16.7702 10.6293 16.7651 9.40921C16.7651 5.3183 20.0985 1.98497 24.1894 1.98497ZM41.803 19.6516C37.7121 19.6516 34.3864 22.9774 34.3864 27.0683C34.3864 28.5531 34.8333 30.0001 35.6667 31.2425C36.3476 32.2423 37.2628 33.0604 38.3323 33.6256C39.4018 34.1907 40.5934 34.4857 41.803 34.485C42.7776 34.485 43.7427 34.2929 44.643 33.9197C45.5433 33.5465 46.3613 32.9995 47.0501 32.31C47.7389 31.6205 48.285 30.802 48.6573 29.9013C49.0296 29.0006 49.2207 28.0353 49.2197 27.0607C49.2273 22.9774 45.8939 19.6516 41.803 19.6516ZM35.5 27.0683C35.5 23.591 38.3258 20.7577 41.8106 20.7577C45.2954 20.7577 48.1212 23.591 48.1212 27.0683C48.1212 28.0683 47.8712 29.0456 47.4242 29.9319C46.5085 28.8738 45.3102 28.0986 43.9697 27.6971C44.2045 27.5001 44.4167 27.2728 44.5909 27.0153C44.9697 26.4547 45.1667 25.8031 45.1667 25.1289C45.1667 23.2804 43.6667 21.7804 41.8182 21.7804C39.9697 21.7804 38.4697 23.2804 38.4697 25.1289C38.4697 25.8031 38.6667 26.4547 39.053 27.0153C39.2273 27.2728 39.4394 27.5001 39.6742 27.6971C38.3345 28.1044 37.1371 28.8817 36.2197 29.9395C35.7482 29.0559 35.501 28.0699 35.5 27.0683ZM41.803 27.3713H41.7576C41.4014 27.3657 41.0518 27.2746 40.738 27.1059C40.4243 26.9372 40.1556 26.6957 39.9545 26.4016C39.7257 26.064 39.5931 25.6705 39.5709 25.2633C39.5487 24.8561 39.6378 24.4506 39.8285 24.0901C40.0193 23.7296 40.3045 23.4279 40.6537 23.2172C41.0029 23.0065 41.4028 22.8948 41.8106 22.8941C43.0454 22.8941 44.053 23.9016 44.053 25.1365C44.053 25.5835 43.9167 26.0228 43.6667 26.3941C43.2576 26.9925 42.5833 27.3562 41.8561 27.3713H41.803ZM41.803 33.3789C39.8485 33.3789 38.0151 32.4622 36.8258 30.9319C37.4042 30.1796 38.146 29.5685 38.995 29.1446C39.8441 28.7207 40.7783 28.4952 41.7273 28.485C41.75 28.485 41.7727 28.4925 41.7954 28.4925C41.8182 28.4925 41.8409 28.485 41.8636 28.485C43.7954 28.5077 45.5909 29.4168 46.7651 30.9319C46.1824 31.6945 45.4314 32.3121 44.5706 32.7365C43.7099 33.161 42.7627 33.3808 41.803 33.3789ZM36.3485 14.3031C37.5151 15.8259 39.2954 16.7047 41.2197 16.7047C43.1439 16.7047 44.9242 15.8259 46.0985 14.2956C46.1742 14.1971 46.2348 14.1062 46.2954 14.0153C46.9892 12.9995 47.3614 11.7984 47.3636 10.5683C47.3636 7.18194 44.6061 4.42436 41.2197 4.42436C37.8333 4.42436 35.0758 7.18194 35.0758 10.5683C35.0758 11.7956 35.447 12.9925 36.1364 14.0153C36.2045 14.1138 36.2727 14.2047 36.3485 14.3031ZM41.2197 15.5986C39.7879 15.5986 38.4621 15.0077 37.5151 13.9698C38.4697 12.9319 39.7954 12.341 41.2197 12.341C42.6439 12.341 43.9697 12.9319 44.9242 13.9698C43.9697 15.0077 42.6515 15.5986 41.2197 15.5986ZM42.6439 10.4774C42.3258 10.9471 41.7879 11.2274 41.2197 11.2274C40.6515 11.2274 40.1136 10.9471 39.7954 10.4774C39.5985 10.1895 39.4924 9.8486 39.4924 9.50769C39.4924 8.56072 40.2651 7.788 41.2121 7.788C42.1591 7.788 42.9318 8.56072 42.9318 9.50769C42.9394 9.85618 42.8409 10.1895 42.6439 10.4774ZM41.2197 5.538C43.9924 5.538 46.25 7.79557 46.25 10.5759C46.25 11.4471 46.0076 12.288 45.5758 13.0531C44.8939 12.3638 44.0758 11.8562 43.1667 11.5607C43.3106 11.4244 43.4394 11.2728 43.553 11.1062C43.8712 10.6289 44.0454 10.0835 44.0454 9.51527C44.0454 7.95466 42.7727 6.68194 41.2121 6.68194C39.6515 6.68194 38.3788 7.95466 38.3788 9.51527C38.3775 9.89709 38.4548 10.2751 38.606 10.6257C38.7572 10.9763 38.979 11.292 39.2576 11.5531C38.3561 11.8562 37.5303 12.3638 36.8485 13.0531C36.4167 12.2956 36.1742 11.4471 36.1742 10.5759C36.1894 7.79557 38.447 5.538 41.2197 5.538Z" fill="#262727" stroke="#262727" stroke-width="0.5"/>
<path id="Vector_2" d="M25.4698 28.4395C25.538 28.4698 25.6137 28.4849 25.6819 28.4849C25.9016 28.4849 26.1062 28.3562 26.1971 28.144L27.6971 24.5531C27.7653 24.3789 27.7501 24.1895 27.644 24.0304C27.5931 23.9544 27.5244 23.8919 27.4438 23.8483C27.3633 23.8048 27.2734 23.7815 27.1819 23.7804H24.9925L26.038 21.0759C26.1516 20.788 26.0077 20.4698 25.7198 20.3562C25.4319 20.2425 25.1137 20.3865 25.0001 20.6743L23.6668 24.1289C23.5986 24.3031 23.6213 24.4925 23.7274 24.644C23.8334 24.7956 24.0001 24.8865 24.1819 24.8865H26.3486L25.1668 27.7046C25.0531 27.9925 25.1895 28.3183 25.4698 28.4395ZM7.92434 12.5607C7.98436 12.6279 8.05979 12.6795 8.14415 12.7112C8.22851 12.7428 8.31929 12.7535 8.40869 12.7423C8.49809 12.7311 8.58344 12.6984 8.65742 12.647C8.73141 12.5956 8.7918 12.527 8.83343 12.4471L9.83343 10.5304L11.788 12.8789C11.9016 13.0077 12.0531 13.0759 12.2122 13.0759C12.341 13.0759 12.4622 13.0304 12.5683 12.9471C12.6804 12.8527 12.7511 12.7182 12.7652 12.5724C12.7794 12.4265 12.7359 12.2809 12.644 12.1668L10.1592 9.17434C10.1001 9.10505 10.0252 9.05099 9.9408 9.01671C9.85641 8.98243 9.76503 8.96894 9.67434 8.97737C9.49253 9.0001 9.32586 9.10616 9.24253 9.27283L8.22737 11.2122L6.31828 9.0304C6.22087 8.92147 6.08472 8.85495 5.93893 8.84504C5.79313 8.83513 5.64924 8.88262 5.53798 8.97737C5.30313 9.18949 5.2804 9.54555 5.47737 9.77283L7.92434 12.5607ZM39.7274 39.538L37.6213 40.1365L37.8865 37.2501C37.9168 36.9471 37.6895 36.6743 37.3865 36.644C37.0834 36.6137 36.8107 36.841 36.7804 37.144L36.4395 40.8334C36.4243 41.0152 36.5001 41.1971 36.6365 41.3107C36.7804 41.4243 36.9698 41.4698 37.144 41.4168L39.2274 40.8259L38.8637 43.8562C38.8259 44.1592 39.0456 44.4395 39.3486 44.4698H39.4168C39.6971 44.4698 39.9319 44.2652 39.9698 43.9774L40.4319 40.1137C40.4424 40.0236 40.4307 39.9322 40.3976 39.8477C40.3646 39.7632 40.3114 39.688 40.2425 39.6289C40.1678 39.5784 40.0834 39.5443 39.9946 39.5286C39.9059 39.513 39.8148 39.5161 39.7274 39.538Z" fill="#262727" stroke="#262727" stroke-width="0.5"/>
</g>
</g>
<defs>
<clipPath id="clip0_367_2505">
<rect width="50" height="50" fill="white"/>
</clipPath>
</defs>
</svg>
