<svg width="40" height="40" viewBox="0 0 40 40" fill="none" xmlns="http://www.w3.org/2000/svg">
<g id="Frame">
<g id="Group">
<path id="Vector" d="M26.7002 27.3296L21.285 30.4837C21.1322 30.5734 20.9716 30.6491 20.8052 30.7101C20.8467 30.6101 20.8814 30.5075 20.9094 30.403C21.2061 29.2955 20.5503 28.14 19.4163 27.7723C19.3895 27.7637 19.3622 27.7568 19.3345 27.7518C17.7901 27.4733 16.2604 26.9202 15.0312 26.4759C14.6013 26.3204 14.1951 26.1736 13.8484 26.0612C12.4081 25.5938 11.1193 26.1647 10.0486 26.7845L6.14601 29.0441L5.83804 28.4998C5.45171 27.8173 4.58218 27.5763 3.8996 27.9626L2.38023 28.8225C1.69773 29.2087 1.45663 30.0783 1.84288 30.7609L6.30991 38.6538C6.57132 39.1155 7.0539 39.3752 7.55015 39.3752C7.78734 39.3752 8.02757 39.3159 8.24835 39.191L9.76773 38.3311C10.4502 37.9448 10.6912 37.0752 10.305 36.3927L9.91499 35.7035L10.6575 35.2748L17.5355 37.1177C17.9309 37.2238 18.3244 37.2765 18.7116 37.2764C19.4947 37.2764 20.2514 37.0607 20.9432 36.6348L30.7707 30.5834C31.7302 29.9927 32.0373 28.5086 31.4151 27.4698C31.1143 26.9679 29.8857 25.4744 26.7002 27.3296ZM9.15195 37.2433L7.63257 38.1032C7.55124 38.1491 7.44374 38.1195 7.39773 38.0381L2.9307 30.1453C2.88468 30.064 2.91452 29.9565 2.99577 29.9105L4.51515 29.0505C4.54055 29.0363 4.56921 29.0288 4.59835 29.0289C4.65898 29.0289 4.71874 29.0604 4.74999 29.1156L9.21702 37.0084C9.26304 37.0898 9.23327 37.1973 9.15195 37.2433ZM30.1152 29.5193L20.2878 35.5706C19.5436 36.0287 18.7265 36.1432 17.859 35.9106L10.7309 34.0007C10.6516 33.9795 10.5689 33.974 10.4875 33.9847C10.4062 33.9954 10.3277 34.0221 10.2566 34.0631L9.29921 34.6159L6.76163 30.132L10.6748 27.8663C11.5491 27.3602 12.4919 26.9352 13.4627 27.2502C13.7897 27.3563 14.168 27.493 14.6062 27.6515C15.8676 28.1075 17.4346 28.674 19.0661 28.9736C19.5531 29.1491 19.8255 29.6183 19.7019 30.0796C19.5705 30.57 19.203 30.784 18.6105 30.7168C17.8217 30.5541 17.0691 30.3395 16.2731 30.1121C15.892 30.0033 15.498 29.8908 15.0924 29.782C14.9332 29.742 14.7647 29.7661 14.6232 29.8493C14.4817 29.9324 14.3785 30.0679 14.336 30.2264C14.2936 30.385 14.3152 30.5539 14.3961 30.6966C14.4771 30.8394 14.611 30.9446 14.7689 30.9895C15.1646 31.0955 15.5536 31.2066 15.9298 31.314C16.759 31.5508 17.5421 31.7745 18.388 31.9473C18.3923 31.9482 18.3966 31.9485 18.4008 31.9493C18.4048 31.9501 18.4088 31.9513 18.4129 31.9519L19.0866 32.0614C20.1282 32.228 21.053 32.0652 21.914 31.5638L27.3293 28.4097C28.7888 27.5596 29.9434 27.4457 30.3426 28.1121C30.612 28.5621 30.4951 29.2853 30.1152 29.5193ZM4.88491 30.4492C4.89611 30.5201 4.89313 30.5925 4.87615 30.6622C4.85916 30.732 4.82851 30.7976 4.78597 30.8554C4.74343 30.9132 4.68985 30.962 4.62832 30.999C4.5668 31.0359 4.49855 31.0603 4.42754 31.0706C4.35653 31.081 4.28416 31.0772 4.21464 31.0594C4.14511 31.0417 4.0798 31.0103 4.02249 30.9671C3.96518 30.9239 3.91702 30.8697 3.88078 30.8078C3.84455 30.7458 3.82097 30.6773 3.8114 30.6062C3.79236 30.4646 3.8299 30.3213 3.91586 30.2073C4.00182 30.0933 4.12928 30.0177 4.27058 29.9971C4.41188 29.9764 4.55562 30.0123 4.67063 30.0969C4.78564 30.1816 4.86264 30.3082 4.88491 30.4492ZM11.1294 10.5109C11.2257 10.7016 11.3125 10.8708 11.3904 11.0227C11.7023 11.631 11.8589 11.9362 11.9045 12.1951C11.9501 12.4538 11.9075 12.7943 11.8224 13.4727C11.8012 13.6421 11.7775 13.8308 11.7522 14.0428C11.615 15.1898 12.2363 16.2659 13.2983 16.7207C13.4946 16.8048 13.6698 16.8786 13.8272 16.9449L13.9534 16.9981L11.4443 22.3873C11.3961 22.4908 11.3772 22.6056 11.3896 22.7191C11.4021 22.8327 11.4454 22.9406 11.5149 23.0313C11.5844 23.1219 11.6774 23.1918 11.7838 23.2333C11.8902 23.2748 12.0059 23.2864 12.1184 23.2667L14.8855 22.7833L16.2969 25.212C16.3543 25.3107 16.4376 25.3919 16.5379 25.4466C16.6381 25.5013 16.7515 25.5275 16.8656 25.5223C16.9797 25.5172 17.0902 25.4808 17.1851 25.4172C17.28 25.3536 17.3557 25.2653 17.4039 25.1617L19.8751 19.8537L19.8061 19.8215C20.2627 19.6825 20.5263 19.6126 20.7444 19.6126C21.0073 19.6126 21.3351 19.7138 21.9883 19.9153L22.223 19.9877L24.0146 24.1473C24.0598 24.2522 24.1329 24.3428 24.2259 24.409C24.3189 24.4753 24.4283 24.5149 24.5422 24.5234C24.6561 24.5318 24.7702 24.5089 24.872 24.4571C24.9738 24.4054 25.0595 24.3267 25.1197 24.2296L26.6008 21.8428L29.3526 22.4064C29.4646 22.4293 29.5806 22.4212 29.6882 22.3828C29.7958 22.3444 29.8908 22.2772 29.9629 22.1886C30.035 22.1 30.0814 21.9933 30.0971 21.8802C30.1129 21.7671 30.0973 21.6518 30.0521 21.5469L28.0071 16.7988C28.0664 16.7737 28.127 16.7478 28.1906 16.7206C29.2525 16.2659 29.8738 15.1897 29.7368 14.0427C29.7114 13.8306 29.6878 13.6419 29.6666 13.4724C29.5815 12.7941 29.5387 12.4537 29.5844 12.1949C29.6301 11.9362 29.7866 11.6308 30.0986 11.0225C30.1765 10.8705 30.2633 10.7014 30.3596 10.5108C30.8807 9.47992 30.6649 8.25609 29.8226 7.46555C29.6829 7.33454 29.5428 7.20397 29.4023 7.07383C28.9011 6.60898 28.6496 6.37563 28.5182 6.14805C28.3868 5.92047 28.3105 5.58594 28.1584 4.91945C28.1205 4.75297 28.0782 4.56758 28.0294 4.35961C27.766 3.23492 26.8141 2.43609 25.6607 2.37195C25.4475 2.36008 25.2575 2.35063 25.0869 2.34219C24.4042 2.3082 24.0616 2.29109 23.8146 2.20125C23.5676 2.11141 23.2942 1.90422 22.7494 1.49148C22.6132 1.38836 22.4616 1.27344 22.2906 1.14547C21.3658 0.45336 20.1231 0.45336 19.1984 1.14547C19.0452 1.26032 18.8923 1.3756 18.7398 1.49133C18.1949 1.90414 17.9214 2.11141 17.6744 2.20125C17.4275 2.29109 17.0848 2.3082 16.4021 2.34219C16.2316 2.35063 16.0416 2.36008 15.8284 2.37195C14.675 2.43609 13.723 3.23484 13.4596 4.35961C13.4109 4.56758 13.3686 4.75289 13.3306 4.91938C13.1786 5.58586 13.1023 5.92039 12.9709 6.14797C12.8394 6.37555 12.588 6.60883 12.0869 7.07367C11.9463 7.20386 11.8062 7.33446 11.6664 7.46547C10.8241 8.25617 10.6083 9.48 11.1294 10.5109ZM16.776 23.5486L15.7474 21.7786C15.6832 21.6681 15.5867 21.58 15.4708 21.526C15.3549 21.4721 15.2253 21.455 15.0994 21.477L13.0828 21.8293L15.0569 17.5893C15.2302 17.7659 15.4126 18.0483 15.7327 18.5438C15.8254 18.6873 15.9286 18.8471 16.0455 19.0259C16.5615 19.8149 17.4342 20.2428 18.3387 20.192L16.776 23.5486ZM26.4248 20.5309C26.2996 20.5052 26.1696 20.5186 26.0522 20.5691C25.9348 20.6197 25.8358 20.705 25.7684 20.8136L24.689 22.553L23.6621 20.1687C24.3746 20.0654 25.0259 19.6642 25.4434 19.0259C25.5602 18.8472 25.6634 18.6874 25.756 18.544C26.1269 17.9697 26.313 17.6814 26.5143 17.5125C26.6023 17.4387 26.7123 17.3716 26.8609 17.2973L28.4304 20.9416L26.4248 20.5309ZM12.5217 8.37711C12.6755 8.23273 12.8132 8.105 12.9369 7.99031C14.1276 6.8857 14.1878 6.78125 14.5491 5.19766C14.5866 5.03328 14.6284 4.85023 14.6765 4.64492C14.8144 4.05602 15.2937 3.65383 15.8976 3.62023C16.1082 3.60852 16.2957 3.59914 16.4641 3.59078C18.0865 3.51 18.1998 3.46875 19.4945 2.48781C19.6289 2.38602 19.7786 2.27266 19.9473 2.14625C20.4315 1.78383 21.0573 1.78383 21.5414 2.14625C21.7102 2.27266 21.8599 2.38602 21.9944 2.48789C23.289 3.46875 23.4023 3.51 25.0246 3.59078C25.193 3.59914 25.3805 3.60852 25.5911 3.62023C26.195 3.65383 26.6743 4.05602 26.8123 4.64492C26.8604 4.85023 26.9021 5.03328 26.9396 5.19766C27.3009 6.78133 27.3612 6.8857 28.5519 7.99039C28.6756 8.10508 28.8133 8.23281 28.967 8.37711C29.408 8.79102 29.5167 9.40727 29.2438 9.94703C29.1487 10.1352 29.063 10.3022 28.9861 10.4523C28.2448 11.8977 28.224 12.0164 28.4261 13.628C28.4471 13.7954 28.4705 13.9817 28.4955 14.1912C28.5672 14.7917 28.2544 15.3336 27.6984 15.5716C27.5245 15.646 27.3504 15.7198 27.176 15.793C25.6792 16.4238 25.5869 16.5013 24.7056 17.8659C24.6142 18.0075 24.5123 18.1653 24.3969 18.3417C24.0659 18.8479 23.4777 19.0619 22.899 18.887C22.6971 18.8259 22.5177 18.7705 22.3566 18.7209C21.5805 18.4814 21.1624 18.3616 20.7442 18.3616C20.326 18.3616 19.9079 18.4814 19.1318 18.7209C18.9707 18.7705 18.7912 18.8259 18.5894 18.887C18.0106 19.062 17.4224 18.8479 17.0914 18.3417C16.9759 18.1652 16.8741 18.0074 16.7826 17.8658C15.9015 16.5013 15.8091 16.4238 14.3123 15.793C14.1569 15.7276 13.9838 15.6547 13.79 15.5716C13.234 15.3335 12.9212 14.7917 12.993 14.1912C13.018 13.9818 13.0414 13.7955 13.0623 13.6282C13.2644 12.0165 13.2435 11.8977 12.5023 10.4524C12.4254 10.3024 12.3397 10.1353 12.2446 9.94711C11.9721 9.40727 12.0808 8.79102 12.5217 8.37711ZM20.7444 16.5078C24.1062 16.5078 26.8413 13.7728 26.8413 10.411C26.8413 7.04922 24.1063 4.31414 20.7444 4.31414C17.3826 4.31414 14.6476 7.04914 14.6476 10.411C14.6476 13.7728 17.3827 16.5078 20.7444 16.5078ZM20.7444 5.56414C23.417 5.56414 25.5913 7.73844 25.5913 10.411C25.5913 13.0835 23.417 15.2578 20.7444 15.2578C18.0719 15.2578 15.8976 13.0835 15.8976 10.411C15.8976 7.73844 18.0719 5.56414 20.7444 5.56414ZM17.73 11.0061C17.6709 10.9483 17.6238 10.8794 17.5916 10.8032C17.5593 10.7271 17.5424 10.6454 17.542 10.5627C17.5415 10.4801 17.5574 10.3981 17.5889 10.3217C17.6203 10.2452 17.6666 10.1757 17.725 10.1173C17.7835 10.0588 17.8529 10.0126 17.9294 9.98114C18.0059 9.94972 18.0878 9.93378 18.1705 9.93424C18.2531 9.93471 18.3349 9.95156 18.411 9.98384C18.4871 10.0161 18.556 10.0632 18.6138 10.1223L19.6933 11.2017L22.8968 8.29445C23.0195 8.18305 23.1815 8.12498 23.3471 8.13301C23.5127 8.14104 23.6683 8.21451 23.7797 8.33727C23.8911 8.46002 23.9492 8.622 23.9411 8.78758C23.9331 8.95315 23.8596 9.10876 23.7369 9.22016L20.0924 12.5276C19.9775 12.6321 19.8278 12.6899 19.6725 12.6898C19.5904 12.6899 19.5091 12.6737 19.4332 12.6423C19.3574 12.6109 19.2885 12.5648 19.2305 12.5067L17.73 11.0061ZM38.1384 4.57727L35.0373 0.924844C34.9576 0.830788 34.8584 0.755237 34.7465 0.703453C34.6346 0.65167 34.5127 0.624897 34.3894 0.625C34.1394 0.625 33.9031 0.734219 33.7414 0.924688L33.7413 0.924766L30.6403 4.57711C30.4233 4.83266 30.3759 5.18039 30.5166 5.48453C30.6573 5.78875 30.953 5.97766 31.2884 5.97766H32.1076V13.1364C32.1076 13.7295 32.5901 14.2119 33.1831 14.2119H35.5956C36.1887 14.2119 36.6711 13.7295 36.6711 13.1364V5.97781H37.4905C37.8258 5.97781 38.1216 5.78883 38.2623 5.48469C38.4029 5.18055 38.3555 4.83281 38.1384 4.57727ZM36.046 4.72781C35.8802 4.72781 35.7213 4.79366 35.6041 4.91087C35.4869 5.02808 35.421 5.18705 35.421 5.35281V12.962H33.3576V5.35281C33.3576 5.18705 33.2917 5.02808 33.1745 4.91087C33.0573 4.79366 32.8983 4.72781 32.7326 4.72781H32.152L34.3893 2.09281L36.6265 4.72781H36.046ZM3.99851 5.97781H4.81781V13.1366C4.81781 13.7296 5.30023 14.212 5.89327 14.212H8.30577C8.89882 14.212 9.38124 13.7296 9.38124 13.1366V5.97781H10.2006C10.5359 5.97781 10.8317 5.78883 10.9724 5.48469C11.1131 5.18055 11.0657 4.83281 10.8487 4.57734L7.74765 0.924844C7.66791 0.830794 7.56863 0.755249 7.45673 0.703466C7.34483 0.651683 7.22298 0.624907 7.09968 0.625C6.84968 0.625 6.61335 0.734219 6.45163 0.924688L6.45156 0.924766L3.35054 4.57711C3.13351 4.83266 3.08609 5.18039 3.22679 5.48453C3.36749 5.78883 3.6632 5.97781 3.99851 5.97781ZM7.0996 2.09281L9.33679 4.72781H8.75632C8.59056 4.72781 8.43159 4.79366 8.31438 4.91087C8.19717 5.02808 8.13132 5.18705 8.13132 5.35281V12.962H6.06781V5.35281C6.06781 5.18705 6.00196 5.02808 5.88475 4.91087C5.76754 4.79366 5.60857 4.72781 5.44281 4.72781H4.86226L7.0996 2.09281Z" fill="white"/>
</g>
</g>
</svg>
